<svg xmlns="http://www.w3.org/2000/svg" viewBox="0 0 871.23 693.28"><defs><style>.cls-1{fill:#86efac;}</style></defs><title>Email</title><g id="Layer_2" data-name="Layer 2"><g id="Layer_1-2" data-name="Layer 1"><path class="cls-1" d="M871.23,352.06q-1.41,6.74-2.83,13.45c-3.62,17-14.39,29.53-25.89,41.67-21.38,22.59-43.61,44.35-65.36,66.57C749.29,502.23,720.71,530,692.36,558c-9.48,9.36-19.38,18.29-29,27.48-7.43,7.08-16.07,10.9-26.48,10.43a65.87,65.87,0,0,0-9.32,0c-24.79,2.41-47.74-22.33-49.87-47.12-1.37-16,3.33-29.55,14.26-41.38,16.18-17.52,32.4-35,50.05-51,5.51-5,11.46-8.26,19.34-5.87,11.84,3.58,16.77,16.91,9.64,27.05-6.16,8.76-14.17,15.9-21.43,23.7-8.58,9.21-17.4,18.19-26,27.34a63.7,63.7,0,0,0-5.6,6.88c-5.46,7.68-4.72,14.27,2.21,20.87,5.67,5.39,13.3,5.57,20.14.38,8.87-6.73,16.77-14.59,24.63-22.4q65.22-64.85,130.09-130c10.32-10.38,19.89-21.5,29.52-32.56,22.67-26,7.07-76.43-34.06-81.87-14.73-1.95-27.41,1-38.87,10.56-15.81,13.24-30.6,27.53-45.21,42-31.63,31.4-63.41,62.67-94.74,94.37-24.16,24.42-48.52,48.65-71.84,73.89C511,541.8,510.1,592.53,537.6,624.76c11,12.84,24.54,21.67,39.93,28.06a34.44,34.44,0,0,0,12.53,2.68c12.28.19,24.65,1.39,36.8-.81,13.76-2.5,25.28-9.7,35.58-19,22.65-20.46,43.86-42.39,65.58-63.81,20.88-20.58,41.38-41.56,63.07-61.3A111.65,111.65,0,0,1,800,503.2c6.21-4.56,13.48-3.92,19.39,1.48s7.67,14.07,4.11,20.18c-2.85,4.9-6.72,9-10.62,13.07-39.55,41.07-80.28,81-121.3,120.56C674,675.41,653.89,687,629.79,691.33c-4.5.8-9,1.31-13.58,1.95H595.77c-10.87-1.32-21.82-2.54-32-6.8-46.63-19.54-75.67-53.07-82-104.29-3.19-25.65,2.16-49.73,13.81-72.59,5-9.9,12.39-18.05,19.86-26.06,22.51-24.17,46.08-47.31,69.37-70.72,30.4-30.54,60.67-61.21,91.29-91.53,16.31-16.14,32.26-32.69,49.72-47.61,26.52-22.67,56.44-27.31,88.8-15.23C846,270.16,864,293.43,870.51,326c.2,1,.48,2,.72,3Z"/><path class="cls-1" d="M172.8.24c53.3,0,106.6-.31,159.91,0,148.94,1,297.89.23,446.83.7,6.6,0,6.34,0,6.75,6.63.69,11.24.64,22.49.87,33.73a8.43,8.43,0,0,1-3.6,7.5q-95.2,75.45-190.29,151Q501.4,272.75,409.4,345.44c-3.83,3-7.88,5.81-11.53,9-2.75,2.43-4.9,2.39-7.73.16-15-11.79-30.2-23.38-45.23-35.17C231.13,230.16,118.1,139.91,4.72,50.1,1.38,47.46-.11,44.76,0,40.42c.3-11.1.09-22.21.1-33.31C.11,0,.11,0,7.11,0H172.8Z"/><path class="cls-1" d="M235.81,571.86q-102.15,0-204.32-.05c-1.78,0-4.4,1.07-5.17-1-.6-1.58,1.79-2.79,3-4q72.5-75.7,145-151.37,48.54-50.67,97.08-101.34c4.24-4.42,4.32-4.44,9.25-.55q44.14,34.75,88.27,69.53c4.77,3.74,9.91,7,14.81,10.57,6.61,4.8,13,4.49,19.72,0,9.47-6.38,18.51-13.31,27.45-20.38q38-30,75.84-60.19c2.94-2.34,4.49-2.36,7.21.47,18.45,19.23,37.27,38.09,55.47,57.56,2.72,2.91,2.86,4.57,0,7.5-25.59,25.91-50.66,52.35-76.6,77.9-23,22.61-36.7,49.77-43.75,80.79a120.45,120.45,0,0,0-2.5,28.66c.09,5.85-.09,5.93-6,5.93Z"/><path class="cls-1" d="M.25,329q0-94.4,0-188.79c0-12.87.57-25.74.87-38.62a10.15,10.15,0,0,1,.17-2.21c.43-1.66-.15-4,1.56-4.83,1.87-.89,3.15,1.2,4.46,2.24q84.5,66.8,168.91,133.68c22.63,17.94,45.11,36,67.8,53.9,3.15,2.49,3.33,4.17.65,7C231,305.82,217.45,320.55,203.63,335Q143.39,397.83,83,460.51,44.62,500.35,6.11,540c-1.29,1.33-2.56,3.93-4.34,3.29-2.15-.77-1.36-3.62-1.36-5.59q-.19-89.5-.29-179c0-9.92,0-19.84,0-29.76Z"/><path class="cls-1" d="M787.11,155c0,18.65-.06,37.31.07,56,0,3.58-.79,5.29-4.79,5.63a201.6,201.6,0,0,0-33.16,5.72c-23.21,6-41.29,19.69-58.17,35.95Q646,301.72,601.68,346c-4.17,4.15-4.22,4.19-8.21,0-15.28-16.11-30.61-32.17-45.76-48.4-8.63-9.24-8.53-9.81,1.37-17.76Q664,187.45,780,96.48c1.69-1.33,3.48-4,5.49-3.11,2.31,1.08,1.36,4.27,1.37,6.56.06,18.35,0,36.71,0,55.07Z"/></g></g></svg>