<svg xmlns="http://www.w3.org/2000/svg" viewBox="0 0 365.83 703.9"><defs><style>.cls-1{fill:#86efac;}</style></defs><title>Facebook</title><g id="Layer_2" data-name="Layer 2"><g id="Layer_1-2" data-name="Layer 1"><path class="cls-1" d="M365.83,4.71V117.24q-34.93.11-69.88.23a96.17,96.17,0,0,0-21.76,2.64c-19.25,4.53-30.88,16.27-34.35,36a161.64,161.64,0,0,0-2,26.24c-.25,22.86-.09,45.71-.08,68.57,0,6.57.14,6.71,6.6,6.72h111.2c6.47,0,6.63.28,5.78,6.77Q354,320.6,346.77,376.8c-.89,6.86-.83,6.93-7.81,6.93h-92.3c-8.89,0-8.9,0-8.9,8.8q0,152.3,0,304.6c0,6.68-.07,6.76-6.49,6.76q-58.68,0-117.35,0c-5.71,0-5.92-.26-6-5.95,0-1.61,0-3.22,0-4.83V392.91c0-9.17,0-9.18-9-9.18H6.66c-6.3,0-6.64-.32-6.65-6.3Q0,320.73,0,264c0-6.13.28-6.38,6.51-6.38h94.94c6.23,0,6.45-.22,6.46-6.41,0-27.7.15-55.39,0-83.08-.16-24.22,2.71-47.94,10.75-70.87,9.18-26.2,24.13-48.46,46.3-65.4C192.85,10.55,225.07,1.4,259.67.31,295.14-.81,330.53,1.25,365.83,4.71Z"/></g></g></svg>