<svg xmlns="http://www.w3.org/2000/svg" viewBox="0 0 1141.63 1122.74"><defs><style>.cls-1{fill:#86efac;}</style></defs><title>Github</title><g id="Layer_2" data-name="Layer 2"><g id="Layer_1-2" data-name="Layer 1"><path class="cls-1" d="M712.19,1050.31c0-38,.29-76-.1-114.06-.27-25.7-3.47-51-14.81-74.6A110,110,0,0,0,678.7,834c-1.49-1.61-4.61-2.82-3.48-5.51.87-2.08,3.75-1.58,5.84-1.84,29.68-3.67,58.94-9.22,87.46-18.49,80.82-26.26,132.66-79.81,153.72-162.52,9.07-35.63,12.54-72,11.45-108.58-1.56-52.61-18.5-99.76-53.34-139.8-4.09-4.7-4.34-8.68-2.55-14.44,14.76-47.26,10.18-93.72-6.55-139.57-1.19-3.24-3.48-4-6.37-4.44-10.83-1.45-21.44.28-31.93,2.57-32.32,7.06-61.41,21.81-89.62,38.47-8.5,5-16.75,10.49-25,16a10.28,10.28,0,0,1-9,1.65,530,530,0,0,0-83-15,541.19,541.19,0,0,0-97.11-1.08,563.8,563.8,0,0,0-96.42,16.18c-3.85,1-6.57-.33-9.51-2.31-25.92-17.44-52.91-32.9-82.11-44.22-16.89-6.55-34.22-11.36-52.39-12.69-4.35-.32-8.56.46-12.84.84-3.17.28-4.17,2.61-5.11,5.08a226.53,226.53,0,0,0-14.36,62.58c-2.23,27,.08,53.62,9,79.39,1.31,3.79.35,6.35-2.13,9.26-26.87,31.63-44.5,67.7-51.4,108.76-3.93,23.42-3.82,47-2.36,70.64,1.59,25.82,5.17,51.23,12,76.2,20.93,76.67,69.11,128,143.75,154.73,30.9,11.08,62.9,17.22,95.43,20.89,2.08.24,4.86-.27,5.67,2.06.69,2-1.73,3.22-3,4.59-17.49,18.8-26,41.71-30.12,66.51-.77,4.67-2.63,7.08-6.92,8.84-29.14,11.94-58.93,17.21-90,9-32.35-8.57-54.2-30.16-71.1-57.85-16-26.3-37.26-46.52-67.26-56.09-11.63-3.71-23.47-5.23-35.52-1.94-10.85,3-12.68,8.55-5.59,17A53.86,53.86,0,0,0,171.05,831c31,18.13,50.62,45.88,63.2,78.28,19.64,50.62,57.86,74.79,109.51,81.35,25.57,3.25,51,1.23,76.28-3.59,9.32-1.77,9.21-1.75,9.31,7.42.34,31.14.79,62.29,1.15,93.43a57.74,57.74,0,0,1-.47,10.28c-3.32,19.35-21.2,29.25-41.42,22.42A571.45,571.45,0,0,1,167.14,982.06,574.19,574.19,0,0,1,2.86,632.71,585.2,585.2,0,0,1,2,527.24,575.29,575.29,0,0,1,47.27,345.53c30.65-71,74-133.17,129.52-186.8A568.39,568.39,0,0,1,481.19,7,573.88,573.88,0,0,1,622.46,2.32,565.22,565.22,0,0,1,946.59,141.87a576.62,576.62,0,0,1,195,432.5c-.26,82.22-16.32,161.28-50.05,236.5A574.62,574.62,0,0,1,975,981.14q-94.35,95.43-221.06,139.11c-24.19,8.36-42.87-5.08-42.92-30.62,0-13.11,0-26.22,0-39.32Z"/></g></g></svg>