<svg xmlns="http://www.w3.org/2000/svg" viewBox="0 0 708.75 707.96"><defs><style>.cls-1{fill:#86efac;}</style></defs><title>Instagram</title><g id="Layer_2" data-name="Layer 2"><g id="Layer_1-2" data-name="Layer 1"><path class="cls-1" d="M359.39,161.09c-110.68-2.8-198.72,88.21-198.16,192.27-.85,107.18,85.32,194.21,191.68,194.56,109.64.37,194.41-85.43,195-192.62C548.59,246.05,461,163.67,359.39,161.09Zm-9,344.83c-79-1.87-149-68.79-147.21-155.07,1.59-78.24,69.47-150,152.53-147.31C435.91,201.69,507.64,271,506,357.9,504.5,437.49,438,508,350.36,505.92Zm202-413.57c-33.13.36-57.69,24.46-57.26,58.1.45,34.67,26,57,57.85,56.72s56.86-25,56.21-57.32C609.76,117.74,584.53,92,552.33,92.35Zm-.26,73c-7.86.08-15-7.28-15-15.47,0-8.59,6.51-15.5,14.7-15.56,8.54-.08,16,6.86,16.26,15.2C568.29,157.09,560,165.29,552.07,165.38Zm.26-73c-33.13.36-57.69,24.46-57.26,58.1.45,34.67,26,57,57.85,56.72s56.86-25,56.21-57.32C609.76,117.74,584.53,92,552.33,92.35Zm-.26,73c-7.86.08-15-7.28-15-15.47,0-8.59,6.51-15.5,14.7-15.56,8.54-.08,16,6.86,16.26,15.2C568.29,157.09,560,165.29,552.07,165.38Zm-192.68-4.29c-110.68-2.8-198.72,88.21-198.16,192.27-.85,107.18,85.32,194.21,191.68,194.56,109.64.37,194.41-85.43,195-192.62C548.59,246.05,461,163.67,359.39,161.09Zm-9,344.83c-79-1.87-149-68.79-147.21-155.07,1.59-78.24,69.47-150,152.53-147.31C435.91,201.69,507.64,271,506,357.9,504.5,437.49,438,508,350.36,505.92Zm9-344.83c-110.68-2.8-198.72,88.21-198.16,192.27-.85,107.18,85.32,194.21,191.68,194.56,109.64.37,194.41-85.43,195-192.62C548.59,246.05,461,163.67,359.39,161.09Zm-9,344.83c-79-1.87-149-68.79-147.21-155.07,1.59-78.24,69.47-150,152.53-147.31C435.91,201.69,507.64,271,506,357.9,504.5,437.49,438,508,350.36,505.92Zm202-413.57c-33.13.36-57.69,24.46-57.26,58.1.45,34.67,26,57,57.85,56.72s56.86-25,56.21-57.32C609.76,117.74,584.53,92,552.33,92.35Zm-.26,73c-7.86.08-15-7.28-15-15.47,0-8.59,6.51-15.5,14.7-15.56,8.54-.08,16,6.86,16.26,15.2C568.29,157.09,560,165.29,552.07,165.38Zm.26-73c-33.13.36-57.69,24.46-57.26,58.1.45,34.67,26,57,57.85,56.72s56.86-25,56.21-57.32C609.76,117.74,584.53,92,552.33,92.35Zm-.26,73c-7.86.08-15-7.28-15-15.47,0-8.59,6.51-15.5,14.7-15.56,8.54-.08,16,6.86,16.26,15.2C568.29,157.09,560,165.29,552.07,165.38Zm-192.68-4.29c-110.68-2.8-198.72,88.21-198.16,192.27-.85,107.18,85.32,194.21,191.68,194.56,109.64.37,194.41-85.43,195-192.62C548.59,246.05,461,163.67,359.39,161.09Zm-9,344.83c-79-1.87-149-68.79-147.21-155.07,1.59-78.24,69.47-150,152.53-147.31C435.91,201.69,507.64,271,506,357.9,504.5,437.49,438,508,350.36,505.92Zm9-344.83c-110.68-2.8-198.72,88.21-198.16,192.27-.85,107.18,85.32,194.21,191.68,194.56,109.64.37,194.41-85.43,195-192.62C548.59,246.05,461,163.67,359.39,161.09Zm-9,344.83c-79-1.87-149-68.79-147.21-155.07,1.59-78.24,69.47-150,152.53-147.31C435.91,201.69,507.64,271,506,357.9,504.5,437.49,438,508,350.36,505.92Zm202-413.57c-33.13.36-57.69,24.46-57.26,58.1.45,34.67,26,57,57.85,56.72s56.86-25,56.21-57.32C609.76,117.74,584.53,92,552.33,92.35Zm-.26,73c-7.86.08-15-7.28-15-15.47,0-8.59,6.51-15.5,14.7-15.56,8.54-.08,16,6.86,16.26,15.2C568.29,157.09,560,165.29,552.07,165.38Zm.26-73c-33.13.36-57.69,24.46-57.26,58.1.45,34.67,26,57,57.85,56.72s56.86-25,56.21-57.32C609.76,117.74,584.53,92,552.33,92.35Zm-.26,73c-7.86.08-15-7.28-15-15.47,0-8.59,6.51-15.5,14.7-15.56,8.54-.08,16,6.86,16.26,15.2C568.29,157.09,560,165.29,552.07,165.38Zm-192.68-4.29c-110.68-2.8-198.72,88.21-198.16,192.27-.85,107.18,85.32,194.21,191.68,194.56,109.64.37,194.41-85.43,195-192.62C548.59,246.05,461,163.67,359.39,161.09Zm-9,344.83c-79-1.87-149-68.79-147.21-155.07,1.59-78.24,69.47-150,152.53-147.31C435.91,201.69,507.64,271,506,357.9,504.5,437.49,438,508,350.36,505.92Zm9-344.83c-110.68-2.8-198.72,88.21-198.16,192.27-.85,107.18,85.32,194.21,191.68,194.56,109.64.37,194.41-85.43,195-192.62C548.59,246.05,461,163.67,359.39,161.09Zm-9,344.83c-79-1.87-149-68.79-147.21-155.07,1.59-78.24,69.47-150,152.53-147.31C435.91,201.69,507.64,271,506,357.9,504.5,437.49,438,508,350.36,505.92Zm202-413.57c-33.13.36-57.69,24.46-57.26,58.1.45,34.67,26,57,57.85,56.72s56.86-25,56.21-57.32C609.76,117.74,584.53,92,552.33,92.35Zm-.26,73c-7.86.08-15-7.28-15-15.47,0-8.59,6.51-15.5,14.7-15.56,8.54-.08,16,6.86,16.26,15.2C568.29,157.09,560,165.29,552.07,165.38Zm.26-73c-33.13.36-57.69,24.46-57.26,58.1.45,34.67,26,57,57.85,56.72s56.86-25,56.21-57.32C609.76,117.74,584.53,92,552.33,92.35Zm-.26,73c-7.86.08-15-7.28-15-15.47,0-8.59,6.51-15.5,14.7-15.56,8.54-.08,16,6.86,16.26,15.2C568.29,157.09,560,165.29,552.07,165.38Zm-192.68-4.29c-110.68-2.8-198.72,88.21-198.16,192.27-.85,107.18,85.32,194.21,191.68,194.56,109.64.37,194.41-85.43,195-192.62C548.59,246.05,461,163.67,359.39,161.09ZM506,357.9c-1.5,79.59-68,150.11-155.64,148-79-1.87-149-68.79-147.21-155.07,1.59-78.24,69.47-150,152.53-147.31C435.91,201.69,507.64,271,506,357.9ZM708.65,180c0-9.62-.34-19.31-2.45-28.73-10.86-48.81-37.09-87.71-77.5-116.68C597.12,12,561.89-.11,522.47,0,408.76.34,295.05.13,181.34.12A117.52,117.52,0,0,0,161,1.56c-56.48,9.82-100.24,39.32-131.47,87Q-.2,133.81,0,188.58C.45,301.82.17,415.07.16,528.31a119.48,119.48,0,0,0,1.45,20.37c6.84,39.63,24.06,73.86,52.23,102.84a192.62,192.62,0,0,0,90.86,53.07c9.15,2.41,18.63,1.7,27.84,3.37H537.06a3.91,3.91,0,0,1,2.74-.73h0c.44,0,.88,0,1.32,0,14.25-.21,27.91-3.19,41.33-8A189.17,189.17,0,0,0,664,642.74c28.08-33.08,44.84-70.9,44.79-115.21Q708.56,353.77,708.65,180ZM522.85,665.69c-56.26-.18-112.52-.08-168.79-.08-55.32,0-110.64.1-166,0-36.64-.1-68-13.58-95.19-37.85Q55.65,594.41,46.12,545.5A101,101,0,0,1,43.88,526c.1-114.17-.29-228.34.28-342.51.17-34.16,14-63.72,36.43-89.35a146.42,146.42,0,0,1,76.23-46.53,122,122,0,0,1,29.92-3.79q167.37.21,334.75.13c36.64,0,68,13.6,95.21,37.84a145.13,145.13,0,0,1,45.15,74.67,121.44,121.44,0,0,1,3.87,29.9c-.11,113.23.28,226.46-.29,339.69-.17,34.16-14,63.72-36.43,89.34a146.38,146.38,0,0,1-76.23,46.54A121,121,0,0,1,522.85,665.69Zm30.07-458.52c31.83-.29,56.86-25,56.21-57.32.63-32.11-24.6-57.85-56.8-57.5-33.13.36-57.69,24.46-57.26,58.1C495.52,185.12,521.09,207.47,552.92,207.17Zm-1.17-72.82c8.54-.08,16,6.86,16.26,15.2.28,7.54-8,15.74-15.94,15.83s-15-7.28-15-15.47C537,141.32,543.56,134.41,551.75,134.35ZM359.39,161.09c-110.68-2.8-198.72,88.21-198.16,192.27-.85,107.18,85.32,194.21,191.68,194.56,109.64.37,194.41-85.43,195-192.62C548.59,246.05,461,163.67,359.39,161.09ZM506,357.9c-1.5,79.59-68,150.11-155.64,148-79-1.87-149-68.79-147.21-155.07,1.59-78.24,69.47-150,152.53-147.31C435.91,201.69,507.64,271,506,357.9ZM359.39,161.09c-110.68-2.8-198.72,88.21-198.16,192.27-.85,107.18,85.32,194.21,191.68,194.56,109.64.37,194.41-85.43,195-192.62C548.59,246.05,461,163.67,359.39,161.09Zm-9,344.83c-79-1.87-149-68.79-147.21-155.07,1.59-78.24,69.47-150,152.53-147.31C435.91,201.69,507.64,271,506,357.9,504.5,437.49,438,508,350.36,505.92Zm202-413.57c-33.13.36-57.69,24.46-57.26,58.1.45,34.67,26,57,57.85,56.72s56.86-25,56.21-57.32C609.76,117.74,584.53,92,552.33,92.35Zm-.26,73c-7.86.08-15-7.28-15-15.47,0-8.59,6.51-15.5,14.7-15.56,8.54-.08,16,6.86,16.26,15.2C568.29,157.09,560,165.29,552.07,165.38Zm.26-73c-33.13.36-57.69,24.46-57.26,58.1.45,34.67,26,57,57.85,56.72s56.86-25,56.21-57.32C609.76,117.74,584.53,92,552.33,92.35Zm-.26,73c-7.86.08-15-7.28-15-15.47,0-8.59,6.51-15.5,14.7-15.56,8.54-.08,16,6.86,16.26,15.2C568.29,157.09,560,165.29,552.07,165.38Zm-192.68-4.29c-110.68-2.8-198.72,88.21-198.16,192.27-.85,107.18,85.32,194.21,191.68,194.56,109.64.37,194.41-85.43,195-192.62C548.59,246.05,461,163.67,359.39,161.09Zm-9,344.83c-79-1.87-149-68.79-147.21-155.07,1.59-78.24,69.47-150,152.53-147.31C435.91,201.69,507.64,271,506,357.9,504.5,437.49,438,508,350.36,505.92Zm9-344.83c-110.68-2.8-198.72,88.21-198.16,192.27-.85,107.18,85.32,194.21,191.68,194.56,109.64.37,194.41-85.43,195-192.62C548.59,246.05,461,163.67,359.39,161.09Zm-9,344.83c-79-1.87-149-68.79-147.21-155.07,1.59-78.24,69.47-150,152.53-147.31C435.91,201.69,507.64,271,506,357.9,504.5,437.49,438,508,350.36,505.92Zm202-413.57c-33.13.36-57.69,24.46-57.26,58.1.45,34.67,26,57,57.85,56.72s56.86-25,56.21-57.32C609.76,117.74,584.53,92,552.33,92.35Zm-.26,73c-7.86.08-15-7.28-15-15.47,0-8.59,6.51-15.5,14.7-15.56,8.54-.08,16,6.86,16.26,15.2C568.29,157.09,560,165.29,552.07,165.38Zm.26-73c-33.13.36-57.69,24.46-57.26,58.1.45,34.67,26,57,57.85,56.72s56.86-25,56.21-57.32C609.76,117.74,584.53,92,552.33,92.35Zm-.26,73c-7.86.08-15-7.28-15-15.47,0-8.59,6.51-15.5,14.7-15.56,8.54-.08,16,6.86,16.26,15.2C568.29,157.09,560,165.29,552.07,165.38Zm-192.68-4.29c-110.68-2.8-198.72,88.21-198.16,192.27-.85,107.18,85.32,194.21,191.68,194.56,109.64.37,194.41-85.43,195-192.62C548.59,246.05,461,163.67,359.39,161.09Zm-9,344.83c-79-1.87-149-68.79-147.21-155.07,1.59-78.24,69.47-150,152.53-147.31C435.91,201.69,507.64,271,506,357.9,504.5,437.49,438,508,350.36,505.92Zm9-344.83c-110.68-2.8-198.72,88.21-198.16,192.27-.85,107.18,85.32,194.21,191.68,194.56,109.64.37,194.41-85.43,195-192.62C548.59,246.05,461,163.67,359.39,161.09Zm-9,344.83c-79-1.87-149-68.79-147.21-155.07,1.59-78.24,69.47-150,152.53-147.31C435.91,201.69,507.64,271,506,357.9,504.5,437.49,438,508,350.36,505.92Zm202-413.57c-33.13.36-57.69,24.46-57.26,58.1.45,34.67,26,57,57.85,56.72s56.86-25,56.21-57.32C609.76,117.74,584.53,92,552.33,92.35Zm-.26,73c-7.86.08-15-7.28-15-15.47,0-8.59,6.51-15.5,14.7-15.56,8.54-.08,16,6.86,16.26,15.2C568.29,157.09,560,165.29,552.07,165.38Zm.26-73c-33.13.36-57.69,24.46-57.26,58.1.45,34.67,26,57,57.85,56.72s56.86-25,56.21-57.32C609.76,117.74,584.53,92,552.33,92.35Zm-.26,73c-7.86.08-15-7.28-15-15.47,0-8.59,6.51-15.5,14.7-15.56,8.54-.08,16,6.86,16.26,15.2C568.29,157.09,560,165.29,552.07,165.38Zm-192.68-4.29c-110.68-2.8-198.72,88.21-198.16,192.27-.85,107.18,85.32,194.21,191.68,194.56,109.64.37,194.41-85.43,195-192.62C548.59,246.05,461,163.67,359.39,161.09Zm-9,344.83c-79-1.87-149-68.79-147.21-155.07,1.59-78.24,69.47-150,152.53-147.31C435.91,201.69,507.64,271,506,357.9,504.5,437.49,438,508,350.36,505.92Zm9-344.83c-110.68-2.8-198.72,88.21-198.16,192.27-.85,107.18,85.32,194.21,191.68,194.56,109.64.37,194.41-85.43,195-192.62C548.59,246.05,461,163.67,359.39,161.09Zm-9,344.83c-79-1.87-149-68.79-147.21-155.07,1.59-78.24,69.47-150,152.53-147.31C435.91,201.69,507.64,271,506,357.9,504.5,437.49,438,508,350.36,505.92Zm202-413.57c-33.13.36-57.69,24.46-57.26,58.1.45,34.67,26,57,57.85,56.72s56.86-25,56.21-57.32C609.76,117.74,584.53,92,552.33,92.35Zm-.26,73c-7.86.08-15-7.28-15-15.47,0-8.59,6.51-15.5,14.7-15.56,8.54-.08,16,6.86,16.26,15.2C568.29,157.09,560,165.29,552.07,165.38Zm.26-73c-33.13.36-57.69,24.46-57.26,58.1.45,34.67,26,57,57.85,56.72s56.86-25,56.21-57.32C609.76,117.74,584.53,92,552.33,92.35Zm-.26,73c-7.86.08-15-7.28-15-15.47,0-8.59,6.51-15.5,14.7-15.56,8.54-.08,16,6.86,16.26,15.2C568.29,157.09,560,165.29,552.07,165.38Zm-192.68-4.29c-110.68-2.8-198.72,88.21-198.16,192.27-.85,107.18,85.32,194.21,191.68,194.56,109.64.37,194.41-85.43,195-192.62C548.59,246.05,461,163.67,359.39,161.09Zm-9,344.83c-79-1.87-149-68.79-147.21-155.07,1.59-78.24,69.47-150,152.53-147.31C435.91,201.69,507.64,271,506,357.9,504.5,437.49,438,508,350.36,505.92Z"/></g></g></svg>