<svg xmlns="http://www.w3.org/2000/svg" viewBox="0 0 703.19 703.53"><defs><style>.cls-1{fill:#86efac;}</style></defs><title>LinkedIn</title><g id="Layer_2" data-name="Layer 2"><g id="Layer_1-2" data-name="Layer 1"><path class="cls-1" d="M703.19,703.17c-2.08.12-4.16.34-6.24.34q-66.15,0-132.3,0c-7.82,0-7.84,0-7.85-7.77-.11-83.66,0-167.33-.45-251-.1-18.66-2.69-37.18-10.15-54.63-9.8-22.94-27.27-35.27-51.92-38.24a111.26,111.26,0,0,0-36.87,1.73c-26.69,5.68-43.92,22.18-53,47.59-5.22,14.56-7.4,29.7-8.4,45-1.89,28.73-.85,57.49-.94,86.24-.16,54.38,0,108.77-.05,163.15,0,7.87,0,7.89-7.6,7.89H255.61c-7.4,0-7.45,0-7.45-7.11q0-228,0-456c0-6.89.21-7.09,7-7.09q63.79,0,127.59,0c6.45,0,6.74.3,6.75,6.82,0,16.73,0,33.47.05,50.2,0,1.82-.59,3.79.65,5.5,1.64-.07,1.88-1.45,2.48-2.42,24.81-39.86,61.41-61.83,107-69.43,28.67-4.78,57.34-2.77,85.62,3.55,51.71,11.55,85.51,43.12,102.53,93,7.7,22.55,11.64,45.86,13.63,69.54.51,6.05,1.15,12.1,1.73,18.14Z"/><path class="cls-1" d="M11.52,468.33q0-113.68,0-227.38c0-7.59,0-7.62,7.41-7.62q66.14,0,132.25,0c7.14,0,7.25.11,7.26,7.36V696c0,7.52,0,7.54-7.53,7.54H18.67c-7.12,0-7.14,0-7.14-7.28Q11.52,582.29,11.52,468.33Z"/><path class="cls-1" d="M0,84.77C0,37.43,37.61,0,85.06,0c46.71.05,85.15,38.13,84.73,84.87-.41,47-37.13,85.56-85.34,85.75C37.85,170.81,0,131.84,0,84.77Z"/></g></g></svg>