<svg xmlns="http://www.w3.org/2000/svg" viewBox="0 0 719.89 720"><defs><style>.cls-1{fill:#86efac;}</style></defs><title>Pinterest</title><g id="Layer_2" data-name="Layer 2"><g id="Layer_1-2" data-name="Layer 1"><path class="cls-1" d="M719.89,340.63v38.74c-1.29,4.72-.95,9.61-1.41,14.41A359.8,359.8,0,0,1,337.16,719.26,359,359,0,0,1,98.8,607.75a352.46,352.46,0,0,1-59.28-83.62Q-7.82,430.77,1.58,326.38A359.81,359.81,0,0,1,246.73,18.22,358.25,358.25,0,0,1,383.1.76a353.82,353.82,0,0,1,92.33,18.18C539.15,40.73,592.9,77.3,636.11,129q66.36,79.38,80.52,182C718,320.85,718.82,330.76,719.89,340.63ZM129,313.78c.13,39.73,5.06,67.13,19.11,92.34,11.21,20.11,26.83,35.5,48.62,43.92,7.68,3,13.45.23,15.7-7.6,2.59-9,4.54-18.26,7.1-27.31,1.82-6.43.61-11.8-3.83-16.77C203,384.27,196.06,367.51,193.84,349a155.58,155.58,0,0,1,11-78.64c14.35-34.93,38.25-61.3,71.71-78.84,19.3-10.12,40-15.66,61.64-17.62,28.67-2.59,56.65,0,83.47,11.2,34.46,14.36,56.93,39.59,67.54,75.3,5.79,19.47,6.3,39.4,5,59.55-1.71,25.92-6.3,51.22-15.19,75.64s-21.16,46.57-41.53,63.3C419,474,398,480.42,374.17,475.09c-27.86-6.24-44.69-35.46-37.58-63.09,7.61-29.57,18.27-58.24,25.16-88,3.59-15.53,6-31.15,1.52-47-3.87-13.57-11.73-23.51-25.14-28.4-18.06-6.57-34.5-2.51-49.3,8.8-15.73,12-23.8,28.92-28,47.68-5.73,25.34-3.27,50.21,6,74.43a12.85,12.85,0,0,1,.71,7.87c-2.38,9.79-4.67,19.61-7,29.42Q246.33,477,232.17,537.28c-2.88,12.3-6.11,24.54-8.37,37-5.27,29-5.24,58.3-2.45,87.6.86,9,2.1,17.88,3.23,26.81.25,1.93,1,3.7,3.14,4.28s3.91-.44,5.27-2.11c.93-1.15,1.85-2.31,2.74-3.49,13.37-17.74,25.81-36.1,36.2-55.76,9.45-17.87,17.3-36.35,22.08-56.12,6.26-25.87,13.12-51.58,19.73-77.36.33-1.27.41-2.91,1.9-3.33,1.71-.48,2.18,1.28,2.91,2.29,8.51,11.71,19.77,20,32.67,26.24,20.94,10.17,43.13,12,65.77,9.06,39.1-5.11,72-22.48,98.61-51.59,22-24.06,36.64-52.25,46.27-83.19a289.63,289.63,0,0,0,12.19-66.06c1.36-19.64,1.57-39.19-2.37-58.59-9.37-46.14-33.44-83.16-70.29-111.92-27.12-21.16-58.14-33.88-91.89-40.05-24.79-4.53-49.7-4.78-74.71-2.36-37.35,3.61-72.5,14.14-104.71,33.58a209.54,209.54,0,0,0-64.87,60.68C141.86,246.62,129.05,283.7,129,313.78Z"/></g></g></svg>