<svg xmlns="http://www.w3.org/2000/svg" viewBox="0 0 657.19 702.72"><defs><style>.cls-1{fill:#86efac;}</style></defs><title>Whatsapp</title><g id="Layer_2" data-name="Layer 2"><g id="Layer_1-2" data-name="Layer 1"><path class="cls-1" d="M0,274.35c22.53-105,78.55-184.88,174.36-236.06C343.09-51.84,550.18,22.73,631.07,203.35c73.91,165-15.46,371.32-187.63,434.51-73.09,26.83-146.25,29.92-220.35,5.4-11.53-3.82-22.51-7.59-35.33-2.3C136.65,662,85.17,682.21,33.82,702.72H16.91C30.18,650.13,43.24,597.48,56.9,545c2.75-10.58,3.47-20.19-2.87-29.49-25.6-37.59-41.17-79.59-54-122.79ZM47.13,673c43.47-16.86,80.44-30.23,116.57-45.56,24.59-10.43,47.18-10.84,73.22-2.67,122.63,38.51,254.13-3.23,330.42-102.62,82.86-107.95,90.9-243.1,21.15-355.48C499,22.52,305.2-21.29,161.22,70.08,17.82,161.07-25.61,353,66.43,495,80.08,516,83.16,534.31,76,557.89,65.26,593.51,57.71,630.1,47.13,673Z"/><path class="cls-1" d="M327.61,602.76c-31.25-.36-62.53-4-90.79-16.82-27.36-12.37-51.45-11.06-77.82,1.43-18.29,8.66-44.61,27.9-55.88,17.54C88.2,591.2,107,565.35,113.2,545.74c7.44-23.48,5.16-40.83-9.35-62.09C45,397.37,38.05,304.24,84.32,211.26,130.5,118.45,209,64,312.77,60.85,493.48,55.41,592.41,188.9,598.09,325.39,604.28,473.93,475.87,603.6,327.61,602.76ZM192.79,269.25c2.05,38.08,24.47,80.85,57.67,118,45.41,50.86,98.7,88.9,168.83,98.37,27.37,3.7,44.41-10.35,59.9-29.08,8.55-10.33,10.41-21.82,4.4-34.12-11.66-23.91-78.66-38.66-98.45-20.28-14,13-25.33,12.14-39.5,1.53a347.68,347.68,0,0,1-73-73.74c-9.79-13.4-10.43-24.71,1.66-37.38,8-8.4,19.27-17,14-31.42-7-19.39-14.87-38.49-22.39-57.71-4.14-10.58-12.9-12.24-22.91-12.36C212.81,190.7,192,217.36,192.79,269.25Z"/></g></g></svg>