<svg xmlns="http://www.w3.org/2000/svg" viewBox="0 0 1391.99 1337.44"><title>books</title><g id="Layer_2" data-name="Layer 2"><g id="Layer_1-2" data-name="Layer 1"><path d="M389.54,378c38.14.42,68.27,4.77,98.72,4.28,14.09-.22,20.1-5.6,23.67-18.58,9.92-36,15.7-73.21,30.24-107.9,8.42-20.1,18.13-39.65,34.38-54.66,40.86-37.72,88.93-42.28,141.09-13.69,30.2,16.56,54.74,40.64,81.41,61.92,42.94,34.25,30.18,32.76,71.67-2.25C891,230,910.33,211.77,932.26,196.64c85-58.63,167.36-31.76,199.84,66.29,10.54,31.82,18.17,64.69,25.69,97.41,3.64,15.88,12.19,21.79,27.38,20.87,23.79-1.43,47.66-2,71.35-4.38a215,215,0,0,1,75.78,5.81c62.38,16.12,96.14,70.29,84.74,133.84-6.66,37.16-22.17,71.25-35.74,106.09-15.76,40.47-20.51,35.81,19.44,60.63,35,21.72,70.89,42.07,98.62,73.63,43.7,49.73,42.24,111.35-3.71,159.35-20.2,21.1-44.45,36.15-69.62,50.18-13.72,7.65-26.73,16.63-40.7,23.76-16.17,8.24-17.12,19-10.81,34.73,13.52,33.65,29.17,66.56,38.27,101.89,23.69,92-26.48,158.89-121.85,160.71-34.61.66-69.34-1.33-103.91-3.63-18.28-1.22-25.83,6.16-30.12,23.22-8.84,35.17-15.15,71-28.19,105.12-17.75,46.4-48.17,77.7-99.22,85.77-11.23,1.78-21.6-.4-32.08-2.82-41.63-9.64-77.69-29.47-108.54-59.19-12.07-11.63-25.83-21.49-38.26-32.77-11-10-20.73-9-31.35.43-18.66,16.52-37.46,32.9-56.62,48.84-29.34,24.4-59.34,47.82-99.69,50.56-48.31,3.28-83.57-17.62-107.79-58.63-14.78-25-22.79-52.6-29.52-80.62-3.28-13.7-6.59-27.39-10-41-8.93-35.47-12.1-37.2-49.15-34.09-34.48,2.89-68.84,6.26-103.74,3.07-76.89-7-122.46-66.24-108.64-142.61,7.23-40,25-76.06,39.5-113.38,10.82-27.78,10.76-27.69-14.57-43.74-37-23.46-76-44.14-106.12-77.21C127.57,865,128,803.53,173.61,754.08c25.12-27.25,56.9-44.66,87.65-64,49.33-31,45.52-19.69,24-74.62-15.38-39.31-33.93-77.61-33.78-121.26.2-52.86,32-94.92,83-109.08C355.08,379.45,376,377.32,389.54,378ZM631,802.36c-33.46.09-54.26,13.81-65.74,40-11.76,26.9-7.65,52.72,12.88,73.75q68.73,70.41,139.1,139.24c30.8,30,74.84,27.29,101.74-6.14q137.64-171,274.31-342.85c22.66-28.48,16.78-71-11.33-93.27-29.13-23-69.22-19.3-93.35,9.33-17.11,20.3-33.55,41.18-50.14,61.92Q854.13,789.8,770,895.35c-6.89,8.67-11.68,10.15-20.19,1.17-22.73-24-46.46-47.07-69.88-70.4C665.24,811.47,648.49,801.2,631,802.36Z" transform="translate(-139.16 -165.88)"/></g></g></svg>