<svg xmlns="http://www.w3.org/2000/svg" viewBox="0 0 899.98 1290.8"><defs><style>.cls-1{fill:#86efac;}</style></defs><title>Brand Identity</title><g id="Layer_2" data-name="Layer 2"><g id="Layer_1-2" data-name="Layer 1"><path class="cls-1" d="M447.79,1082.43q-16.23,0-32.44,0c-155.22,0-155.46,0-185.13-151.67-15.67-80.14-64.67-140-117.31-198.23C-34,570-37.84,333.35,103.19,164.4c148.58-178,393.71-216,591.3-91.7C873.22,185.13,949.94,430.27,865.88,620.21c-28.57,64.57-78.09,113.86-123.23,165.92-42.78,49.34-67.2,105-73.83,169.39-11.21,108.82-30.14,126.3-136.68,126.87C504,1082.54,475.91,1082.41,447.79,1082.43ZM356.68,977.52c13.69-53.35,11.68-107.69.14-161.46-17.21-80.19-38.91-159.42-55.7-239.69-12.14-58,5.77-73.18,59.57-56.34,59.38,18.59,118.67,17.07,178.15-.18,51.77-15,69.43-.36,60.54,52.51-6.78,40.38-18,80-26.12,120.18-16.55,82.22-41.89,163.27-35.7,248.7,1,13.93-2.43,34.57,19.17,34.15,16.62-.32,14.95-18.75,16.29-30.82,11.2-101.24,60-182.85,128.76-255.43,34-35.93,65.89-74.13,84-121.9C842,419.08,778.26,231,644.4,152.33,483.22,57.65,297,85.78,180.75,222.37,68.82,353.84,65.54,530.09,177,660.48,252.41,748.74,321.71,838.35,331,960,331.64,968.65,338,975.48,356.68,977.52ZM507.26,640.14c-8.62-27.57-44.16-9.09-69.49-11.32-22.12-1.94-57-4.84-43.35,33.06,15.63,43.49-1.11,104.14,56.39,126.73C470.11,796.19,510.26,702.93,507.26,640.14Z"/><path class="cls-1" d="M449,1180.53c-36.6,0-73.24,1-109.78-.42-24.45-.95-39.58-13.32-39.87-40.67-.3-28,10-47.48,39.53-48,75.35-1.21,150.73-1,226.09-.26,25.28.26,39.37,14.58,39.79,41,.45,27.44-9.47,47.17-39.5,48.11C526.52,1181.5,487.74,1180.58,449,1180.53Z"/><path class="cls-1" d="M451.83,1192.13c34.47-.05,68.95.07,103.42-.09,26.32-.12,47.93,6.15,48.89,37.88.8,26.29-9.3,50.12-36.42,53.62-77,10-154.69,9.29-231.76.37-27.52-3.18-36.6-26.77-35.89-53.4.86-32.33,22.32-38.19,48.34-38.29C382.89,1192.09,417.36,1192.19,451.83,1192.13Z"/></g></g></svg>