<svg xmlns="http://www.w3.org/2000/svg" viewBox="0 0 1735.41 2518.47"><title>graphics</title><g id="Layer_2" data-name="Layer 2"><g id="Layer_1-2" data-name="Layer 1"><path d="M861.24,2517.82c-219.86.17-439.73,1.56-659.56-.34-136.83-1.18-169.14-38.8-145.26-175.16,32.25-184.19,147.31-307.52,308.08-391.54,80.4-42,165.56-73.43,255.15-90.46,36.22-6.89,69.3-18.45,73.39-60.06,4.33-44-20-72.86-60.3-89-32-12.85-63.83-26.16-95.71-39.32C163.16,1517.57-58.32,1119.25,13.44,730.31,91,310.07,435.76,9.14,850,.19c402-8.68,767,274.77,861.23,668.84,98.49,411.7-110.09,826.81-502.94,1000.22-31.51,13.91-64.3,24.9-96,38.37-39.72,16.88-62.25,45.77-56.92,90.84,5,42.12,36,53.58,71.9,61.88,135.7,31.33,261.55,81.13,371.28,172.38,105.57,87.79,161.14,199.53,188.8,329.32,22.22,104.29-19.4,156.26-127.52,155.87C1326.92,2517.07,1094.08,2517.65,861.24,2517.82Zm12.38-1070c325.35-1.57,580.91-260.19,577.59-584.53C1448,550.75,1187,297,866.38,294.76,546.39,292.56,289,557.22,293,884.25,296.93,1207.22,546.46,1449.42,873.62,1447.84Z"/><path d="M873.11,357.21c286.23,1.58,514.4,232.52,513.76,520-.62,275.58-244.8,518-522.36,518.64-270.83.6-511.72-240.45-513.74-514.09C348.57,584.05,576.1,355.57,873.11,357.21Zm349.83,516.64c1.15-202.42-144.76-351.33-346.21-353.32-200.71-2-365.62,156.69-367.29,353.38-1.6,188.91,161.36,354.2,351.86,356.91C1061.91,1233.66,1221.79,1075.85,1222.94,873.85Z"/><path d="M813.5,805c18.18-55.55-51.77-124.08,24.16-154.44,68.07-27.22,135.55,1.44,189.73,50.13,99.79,89.67,97.34,251.7-3.77,343.28-101.68,92.1-247.55,85.19-330.39-19.63-50.16-63.48-80-140.15-36.85-215.1C696.92,738.87,756,823.92,813.5,805Z"/></g></g></svg>