<svg xmlns="http://www.w3.org/2000/svg" viewBox="0 0 1152.17 1157.26"><defs><style>.cls-1{fill:#86efac;}</style></defs><title>motion</title><g id="Layer_2" data-name="Layer 2"><g id="Layer_1-2" data-name="Layer 1"><path class="cls-1" d="M1152.17,582.17c-.19,318.44-257.85,575.36-576.75,575.09C258.38,1157,2.55,897.81,0,579.07-2.39,276.57,247.37-1.26,575.56,0,898.29,1.25,1152.36,257.53,1152.17,582.17ZM903.84,593c1.25-136.79-42.82-224-128.5-290-16-12.31-35.1-39.51-56.23-18.86-17.29,16.9-11.56,47.18-1.3,69.17,7.31,15.67,23,27.63,35.74,40.53C841.91,483.6,848.07,621,768,720.16c-78.65,97.37-219.62,120.66-322.76,53.3-107.77-70.37-145.82-209.21-88-320.84,17-32.75,39.61-60.39,67.17-85.33,25.09-22.71,30.85-62.74,13.84-83.12-22.7-27.21-45.88,9.31-63.79,23.31-123,96.13-160.39,259.24-94,399.14C345.77,844.15,498.7,920,643.39,886.7,803.7,849.77,903.89,726.1,903.84,593ZM633.73,344.59c0-42.32-.2-84.64.06-127,.23-35.72-12.89-57.41-52.73-57.55-38.62-.13-62,13.47-61.88,55.57.22,82.62.42,165.26-.25,247.88-.34,41.82,20.88,56.34,60.46,56.26,38.21-.07,55.67-15.86,54.69-54.28C633.05,425.23,633.85,384.9,633.73,344.59Z"/></g></g></svg>