<svg xmlns="http://www.w3.org/2000/svg" viewBox="0 0 891.4 754.94"><defs><style>.cls-1{fill:#86efac;}</style></defs><title>UI</title><g id="Layer_2" data-name="Layer 2"><g id="Layer_1-2" data-name="Layer 1"><path class="cls-1" d="M128.6,443c-12.93,9.24-22.95,16.26-32.82,23.49-9.62,7.06-20.91,12.57-29.94,2.3-22-24.95-44.39-49.92-62.53-77.57-11.1-16.92,8.39-27.33,19.32-36.51Q202.92,203.34,384.07,53.05c62.75-51.78,63.49-50.89,127.08,1a47.67,47.67,0,0,0,6.61,5.06C539.22,70.9,554,107.15,576,98.63c19.93-7.71,5.6-42.72,8.73-65.45,1.79-13,3.65-26.85,18.5-29.07,34.42-5.17,69.42-5.85,103.68.18,21.44,3.77,20.32,23.89,20.49,40.44.5,48.63,1.82,97.33-.12,145.88-1.3,32.54,10.86,55.54,35.68,75.07,37.09,29.2,72.62,60.39,109.53,89.82,21.5,17.14,26.06,34.36,6.4,55.78-12.2,13.29-24.34,26.82-34.87,41.42-15.54,21.54-30.73,30.2-54.21,9.1-24.1-21.66-26.86-2.25-26.92,16.83-.25,73.65.09,147.31-.2,221-.2,51.51-3.08,54.25-54.33,54.6-37.52.25-75.16-1.83-112.53.52-40.78,2.57-54-15.37-52.6-54.1,2-55.51-.82-111.19,1-166.72,1.08-33.23-9.13-49-44.81-46.95-37.4,2.19-75.08,1.81-112.52.11-31.43-1.44-41.17,12.06-40.42,42.08,1.53,61.11-.57,122.3.77,183.41.67,30.84-12.31,42.52-42.08,41.87-45.83-1-91.71-.71-137.56-.18-26.49.31-36.2-10.65-35.76-37.93,1.39-84.73.36-169.5.08-254.26C131.88,456.94,130.19,451.85,128.6,443Z"/></g></g></svg>