<svg xmlns="http://www.w3.org/2000/svg" viewBox="0 0 1282.46 1006.98"><title>Web Dev</title><g id="Layer_2" data-name="Layer 2"><g id="Layer_1-2" data-name="Layer 1"><path d="M632,760.31c-153.48,0-307-2-460.42,1-58,1.12-74.72-17.61-73.46-76.28,4-189.13,1.07-378.41,1.71-567.63.3-90.74,26.31-116.88,116.4-117Q642-.34,1067.72.4c91.1.17,127,47.86,124.56,139.59-4.71,174.37-2.59,348.92-3.3,523.4-.37,90.26-5.13,96.15-96.55,96.69C939,761,785.47,760.33,632,760.31Zm27.6-112.55c120.82,23.63,242.91,3.58,364.17,10.79,54.56,3.24,75.16-20.38,74.42-74.32q-2.81-205,.27-410.14c.75-53.81-18.12-72.91-74.36-72.36q-378.54,3.73-757.15-.9c-58.56-.65-78.36,20.67-76.95,77.34,2.68,107.21.37,214.53.85,321.8.81,179.94-15,158.63,159.52,157.41,98.18-.69,197.16,13.09,294.7-9.61Z"/><path d="M643.57,1007q-271.47,0-542.95-.08c-38.12,0-79.58,2.83-94.69-43.7-14.16-43.6-2.87-79,32.89-112.62,41-38.54,82.63-56.77,140-56.32q470.34,3.62,940.7,0c62.56-.51,103.14,28.72,140.42,70.5,28.71,32.18,26.21,70.89,13.07,107.19-13.22,36.52-47.71,34.87-80.2,34.8q-274.65-.65-549.28-.21ZM1154.1,894.7c-30.9-40.17-64-33.06-93.87-33.14q-428.29-1.18-856.6-1.28c-22.48,0-57.59-6.83-56.48,21.47,1.17,29.81,37.48,15.3,57.38,15.38,294,1.16,588.08.89,882.12.75C1105.23,897.87,1123.81,896.18,1154.1,894.7Z"/><path d="M632.31,595.17c-52.56,0-105.12-.12-157.67,0-30.56.1-45.44-13.65-45.9-43.88-.37-23.68-.28-47.38,0-71.07.34-32.75,12.54-45.63,46-45.95,65.14-.61,130.3-.23,195.44-.27,6.67,0,13.34-.32,20,0,13.77.59,20.79-5.27,20.35-19.58-.52-16.51-.59-32.39,17.37-42.18,6.78-3.69,4.06-13.59,4.11-20.86.18-29.59.5-59.2.08-88.79-.26-18,7.18-28.46,25.68-28.78,19.46-.33,25.15,11.55,24.94,29-.35,29.6-.16,59.22,0,88.83,0,6.56-2.57,16,3,19,20.83,11.14,18.69,30,18.62,48.36,0,10.55,5.5,15.87,14.79,19.48,15.85,6.14,21.71,18.61,21.43,35.19-.42,25.16.07,50.34-.1,75.51-.21,32.33-11.32,44.63-43.7,45.07-54.78.74-109.57.2-164.35.2Z"/><path d="M545.81,264.86c3.65-38.37,16.82-75.23,43.9-106.69,9.91-11.51,19.14-12,29.8-1.25,9.15,9.27,17.87,16.41,5.9,31.28-41.81,51.92-42.34,108.34-1.31,162.29,12,15.74,6.29,24.53-5.42,35.24-13.8,12.62-22.72,4.25-31.26-6C560.41,347.15,548.14,309.09,545.81,264.86Z"/><path d="M616.29,272.09c-.85-27.19,7.44-49.57,23.47-69.33,8.2-10.11,17.46-14.23,28.28-4.4,9.1,8.27,20.71,15.75,9.23,31.15-19.47,26.11-21,53.32-.71,79.81,13.21,17.24-.3,25.21-10.7,34.29-12.34,10.79-20.28,2.24-27.13-7.32C624.65,316.66,614.24,295.64,616.29,272.09Z"/></g></g></svg>