<svg xmlns="http://www.w3.org/2000/svg" viewBox="0 0 980.41 780"><title>Mail</title><g id="Layer_2" data-name="Layer 2"><g id="Layer_1-2" data-name="Layer 1"><path d="M2,1H387c2.24.94,4.61.58,6.92.59q210.24.13,420.49.23c22,0,44,.12,66,0,4.1,0,5.86,1.07,6.05,5.61.53,12.82.65,25.64,1,38.46.11,4.6-1.21,7.66-4.91,10.57-27.11,21.33-54,42.91-81,64.34q-139,110.3-278.13,220.53c-24.68,19.56-49.53,38.9-74.2,58.48-3,2.4-5.41,2.8-8.28.21-1.23-1.12-2.67-2-4-3-47.08-36.92-94.26-73.7-141.2-110.79Q192.7,204.87,90,123.15,47.92,89.74,5.87,56.29C4,54.77,1.65,53.48,1.68,50.47,1.83,34,1.21,17.49,2,1Z" transform="translate(-1.59 -1)"/><path d="M982,397c-1.06,5-2.11,10.09-3.19,15.13-4.08,19.13-16.19,33.23-29.13,46.9-24.07,25.42-49.08,49.9-73.55,74.92-31.36,32-63.53,63.27-95.43,94.76C770,639.24,758.89,649.29,748,659.64c-8.36,8-18.09,12.27-29.8,11.73a73.44,73.44,0,0,0-10.49.06c-27.9,2.72-53.73-25.13-56.12-53-1.55-18,3.74-33.25,16-46.57,18.21-19.71,36.47-39.35,56.34-57.43,6.19-5.63,12.88-9.3,21.76-6.61,13.32,4,18.87,19,10.84,30.44-6.93,9.86-16,17.9-24.11,26.67-9.66,10.36-19.58,20.47-29.31,30.77a72.24,72.24,0,0,0-6.3,7.75c-6.14,8.64-5.31,16.05,2.49,23.48,6.38,6.07,15,6.27,22.67.43,10-7.58,18.86-16.42,27.71-25.22q73.39-73,146.4-146.32c11.62-11.69,22.39-24.2,33.23-36.65,25.51-29.3,8-86-38.34-92.14-16.57-2.19-30.85,1.11-43.74,11.9-17.79,14.89-34.44,31-50.88,47.28-35.6,35.34-71.36,70.53-106.62,106.2-27.18,27.49-54.6,54.75-80.85,83.16-32.33,35-33.36,92.07-2.41,128.35,12.33,14.45,27.61,24.39,44.94,31.57a38.29,38.29,0,0,0,14.1,3c13.81.22,27.73,1.57,41.4-.91,15.49-2.82,28.46-10.91,40-21.37,25.49-23,49.36-47.71,73.8-71.81,23.5-23.16,46.57-46.77,71-69a123.77,123.77,0,0,1,10-8.31c7-5.14,15.17-4.42,21.82,1.66s8.63,15.84,4.63,22.71c-3.21,5.51-7.56,10.16-12,14.72-44.52,46.21-90.35,91.1-136.51,135.67-19.71,19-42.37,32.1-69.5,36.95-5.06.91-10.18,1.48-15.28,2.2H672c-12.23-1.49-24.56-2.86-36-7.66-52.48-22-85.16-59.72-92.34-117.36-3.6-28.86,2.43-56,15.54-81.7,5.67-11.14,13.95-20.3,22.35-29.32,25.33-27.2,51.86-53.24,78.07-79.58,34.21-34.38,68.28-68.89,102.74-103,18.34-18.17,36.3-36.79,55.95-53.59,29.85-25.5,63.52-30.72,99.94-17.13,35.32,13.18,55.58,39.36,62.94,76,.23,1.13.55,2.25.82,3.38Z" transform="translate(-1.59 -1)"/><path d="M266.88,644.35q-115,0-229.94-.05c-2,0-4.95,1.21-5.81-1.12-.64-1.76,2.05-3.14,3.39-4.55q81.57-85.2,163.2-170.35Q251.83,411.79,306,355.33c6.19-6.44,4.65-7,12.62-.75q49.11,38.61,98.15,77.31c5.37,4.22,11.15,7.89,16.68,11.9,7.44,5.41,14.67,5,22.19-.05,10.65-7.18,20.82-15,30.89-22.94q42.72-33.8,85.34-67.73c3.33-2.66,5.08-2.6,8.12.56,20.76,21.64,41.94,42.87,62.43,64.78,3.09,3.3,3.14,5.17-.08,8.43-28.8,29.17-57,58.92-86.2,87.68-25.83,25.44-41.3,56-49.22,90.92-2.42,10.64-3,21.4-2.82,32.26.1,6.55-.09,6.65-6.73,6.65Z" transform="translate(-1.59 -1)"/><path d="M1.81,371q0-106.23,0-212.46c0-14.49.64-29,1-43.46A11.42,11.42,0,0,1,3,112.6c.47-1.88-.16-4.51,1.74-5.45,2.1-1,3.55,1.33,5,2.5q95.07,75.16,190.08,150.44c25.47,20.18,50.77,40.56,76.3,60.66,3.52,2.78,3.8,4.67.77,7.87-15.48,16.32-30.68,32.9-46.24,49.13Q162.92,448.49,94.93,519q-43,44.65-86.17,89.12c-1.57,1.62-3.11,4.79-5.21,4.05C1,611.28,2,607.83,2,605.46Q1.77,507.73,1.66,410q0-19.5,0-39Z" transform="translate(-1.59 -1)"/><path d="M887.34,174.81c0,21.16-.09,42.32.07,63.47,0,4.12-1.06,5.88-5.47,6.26A229.18,229.18,0,0,0,844.63,251c-26.14,6.7-46.46,22.19-65.45,40.48q-50.76,48.9-100.59,98.72c-4.63,4.61-4.69,4.65-9.24-.15-17.2-18.13-34.44-36.21-51.5-54.47-9.61-10.29-9.46-11,1.28-19.66Q748.46,212,879,109.62c2-1.57,4.08-4.83,6.58-3.69s1.46,4.82,1.47,7.4c.08,20.49,0,41,0,61.48Z" transform="translate(-1.59 -1)"/></g></g></svg>