<svg xmlns="http://www.w3.org/2000/svg" viewBox="0 0 1376.55 1096.35"><defs><style>.cls-1{fill:#86efac;}</style></defs><title>Bootstrap</title><g id="Layer_2" data-name="Layer 2"><g id="Layer_1-2" data-name="Layer 1"><path class="cls-1" d="M258.58,0H1120c77,29,106.92,72.18,106.6,154.11-.08,19.84-.75,39.72.22,59.51,3.69,74.92,9.54,149.68,44.7,217.94,21.94,42.59,52.73,75,105.06,77v77.9c-32.83.19-58.16,15.31-79.46,39.15-27.82,31.15-41.79,68.88-51.74,108.38-18.64,74-18.84,149.48-19,225.12-.19,77.24-59.61,136.8-136.46,136.92q-400.66.62-801.32,0c-76.68-.12-135.42-59.79-136.51-136.92-.35-25.18.92-50.41-.24-75.54-3.5-75.66-9.33-150.94-44.51-220.31-16.81-33.15-39.09-61.84-76.21-71.18C5.42,585.65-2.63,572.65.72,548.62A59.94,59.94,0,0,0,.78,534.9C-.77,518.49,6,510.38,22.64,506.38c29.22-7,52-24.78,69.44-49.25,20.71-29.07,32.73-62,41.25-96.2C150.25,293,152.72,223.7,152.09,154.1,151.34,71.82,181.37,28.8,258.58,0ZM801.25,529.9c6.18-7.37,14.31-7.78,21.16-10.67,59.45-25.06,91-87,76.05-149.66-13.81-58-61.13-99.21-125.78-107-83.6-10.12-167.65-3.17-251.49-4.26-23.55-.3-27.87,16.29-27.85,36.06q.27,252.93.15,505.87c0,29.24,7.29,36.57,36.72,36.71,68.67.32,137.36,1.12,206-.28,51-1,100.45-10,141.62-43.85,46.53-38.21,60.94-89,50.89-145.92-10.34-58.54-49.07-92.76-105.49-108.16C816.13,536.77,807.77,538,801.25,529.9Z"/><path class="cls-1" d="M582.33,666.68c0-25.91,0-51.82,0-77.72,0-9,.59-17.66,12.62-17.27,57,1.85,114.47-6.55,170.88,6.21,60,13.59,88.24,63,70.86,121.39q-11.1,37.31-46.8,52.91c-27.13,11.87-55.62,14.92-84.9,14.44-32.76-.53-65.54-.63-98.29,0-17.59.32-24.78-7-24.29-24.51.7-25.12.18-50.28.18-75.42Z"/><path class="cls-1" d="M582.64,418.14c0-22.88.25-45.76-.08-68.64-.22-14.49,6.55-20.7,20.78-20.58,41.93.37,84-1.37,125.78,1.05,49.83,2.89,80.38,31.58,84.4,74.42,4.27,45.57-18.77,79.6-66.24,93.44-50,14.56-101.56,5.85-152.44,7-11.63.27-12.25-9.34-12.27-18.09-.06-22.88,0-45.76,0-68.63Z"/></g></g></svg>