<svg xmlns="http://www.w3.org/2000/svg" viewBox="0 0 1047.96 1223.43"><defs><style>.cls-1{fill:#000000;}</style></defs><title>CSS3</title><g id="Layer_2" data-name="Layer 2"><g id="Layer_1-2" data-name="Layer 1"><path class="cls-1" d="M537.49,1223.43H509c-11-3.53-21.83-7.38-32.89-10.55-118.64-34-237.17-68.33-356.09-101.25-20.4-5.64-28.78-15.14-30.14-36-3.54-54.11-8.88-108.09-13.5-162.13Q61.47,739.3,46.53,565.06,30.89,383.73,14.92,202.42C10.31,150.47,5,98.58,0,46.66V1.87C5.38,1.36,10.76.39,16.15.39Q520.84.29,1025.54,0c18.64,0,23.88,7,22.1,24.1-3.17,30.34-5.59,60.75-8.23,91.15Q1024,292.52,1008.68,469.8,993.56,644,978.37,818.28c-7.59,87.11-15.54,174.2-22.46,261.37-1.4,17.57-8.34,26.35-25.54,30.66-34.85,8.73-69.27,19.18-103.8,29.18Q682,1181.36,537.49,1223.43ZM525.87,231.06q-148.56,0-297.12,0c-27.63,0-29.89,3-26.94,30.88,2.35,22.25,4.39,44.53,6.27,66.82,2.54,30.12,2.42,30.13,31.81,30.22,6.78,0,13.57,0,20.35,0,141.78,0,283.56.33,425.34-.36,20-.1,26.58,6.36,24.28,25.87-3.48,29.61-5.8,59.37-8,89.12-2.14,29.26-2.51,30.06-32.74,30.08-91.58.07-183.17.37-274.74-.21-18.45-.11-23.84,7-21.86,24.49,3.21,28.28,5.43,56.69,7.24,85.1.85,13.35,6.54,20.06,20,20,6.78,0,13.56.19,20.34.2q119.05,0,238.11.09c28.47.06,29.37.8,27.19,28.28-3.55,44.59-8.23,89.09-11.55,133.7-1,13.7-6.8,20.6-19.86,24-38.67,10.23-77.17,21.14-115.68,32a45.79,45.79,0,0,1-26,.07C472.62,840,432.88,828.48,393,817.7,379.77,814.15,374,807,373.29,793.42c-1.22-22.33-3.86-44.57-5.77-66.86-1.18-13.79-7.88-20.55-22.35-20.3q-41.7.71-83.43,0c-16.59-.28-21.29,8.16-19.9,23.07,5.12,54.67,10.4,109.32,14.73,164,1.17,14.81,8.15,20.92,21.71,24.73q112.64,31.62,224.85,64.66c14.32,4.19,27.73,3.65,41.88-.46,69-20,138.21-39.53,207.33-59.26,38.43-11,37.5-11.07,40.68-50.65,8.14-101.36,17.09-202.66,25.89-304,8.86-102,18.18-203.92,26.75-305.92,2.64-31.37,1.81-31.47-28.77-31.47Q671.39,231,525.87,231.06Z"/></g></g></svg>