<svg xmlns="http://www.w3.org/2000/svg" viewBox="0 0 1958.97 1380.28"><defs><style>.cls-1{fill:#86efac;}</style></defs><title>Docker</title><g id="Layer_2" data-name="Layer 2"><g id="Layer_1-2" data-name="Layer 1"><path class="cls-1" d="M698,666.23q329.68,0,659.39,0c37.17,0,72.5-9.2,107-21.8,15.71-5.73,16-8,8.58-23.22-37.25-76-37.31-153.57-12.52-233.24,12-38.49,32.63-71.64,54.42-104.66,7-10.68,13.47-12.49,24.71-5.06,50.48,33.38,94.59,72.93,125.15,125.9,13.79,23.9,24.56,49.19,29.25,76.6,1.81,10.54,5.67,14,17.36,12.43,57.94-7.77,115.28-4.46,171.71,12,27.13,7.91,47.85,26.42,70.94,41,5.65,3.57,6.11,9.27,3.4,15.39-25.31,57.17-56.4,110-111.5,143.89-47.13,29-99,41.42-154.12,42.23-41.17.61-33.8-6.25-51.65,34.79-25.8,59.32-58,115.18-94.4,168.69a912.68,912.68,0,0,1-97.18,120c-57.64,59.84-121.83,111.83-193.45,154.58-91.81,54.79-189.92,93.53-293.58,118.85-63.79,15.58-128.61,24.31-193.9,30.56a1149.46,1149.46,0,0,1-193.48,2c-106.52-7.81-208.87-33-301.64-90-97.12-59.74-166.33-142.47-214.29-245.23-51-109.29-63-224.39-56.61-342.75,1.78-32.92,2.55-32.9,35.54-32.91Z"/><path class="cls-1" d="M252.63,637.24c-28.92,0-57.85-.3-86.77.13-12.47.18-17.14-5.06-17.07-17.31q.47-79.54,0-159.09c-.07-12,4-17.58,16.76-17.51q87.5.51,175,0c12.61-.09,17,5,16.9,17.21q-.51,79.53,0,159.09c.11,13.24-5.15,17.94-18.06,17.7C310.49,636.89,281.56,637.25,252.63,637.24Z"/><path class="cls-1" d="M970,220.68c29.4,0,58.79.21,88.18-.13,11.52-.13,16.64,4.33,16.58,16.18q-.42,80.94-.07,161.89c0,11.22-5.19,15.68-15.79,15.67q-88.89,0-177.79.07c-10.21,0-14.9-4.34-14.87-14.78q.24-81.66,0-163.34c0-11,4.64-15.71,15.61-15.62C911.17,220.86,940.56,220.7,970,220.68Z"/><path class="cls-1" d="M731.17,637.22c-29.37,0-58.74-.22-88.1.11-11.44.13-16.7-4.14-16.64-16.06q.42-80.16.07-160.33c0-12.15,5.45-17.41,17.54-17.37q87.39.26,174.77-.05c11.77,0,16.29,4.9,16.23,16.49q-.4,80.16,0,160.33c.08,12.48-5,17.19-17.23,17C789,636.93,760.06,637.22,731.17,637.22Z"/><path class="cls-1" d="M972.12,443.61c27.92,0,55.85.43,83.76-.2,13.43-.31,19,4.19,18.91,18.24-.52,52-.09,104-.25,156-.06,16.35-3.23,19.51-19.59,19.55-57.28.15-114.57-.13-171.86.19-12.49.07-17.07-5.09-17-17.29q.46-80.15,0-160.31c-.06-11.76,4.87-16.39,16.45-16.26C912.42,443.85,942.27,443.62,972.12,443.61Z"/><path class="cls-1" d="M731.33,220.66c29.36,0,58.72.24,88.08-.12,10.93-.14,15.67,3.87,15.61,15.17q-.42,81.59,0,163.17c0,11.08-4.71,15.57-15.62,15.53q-87.36-.26-174.72,0c-12.19.05-17.94-5.38-18-17.18q-.08-80.86,0-161.73c0-11.1,6-15,16.57-15C672.6,220.83,702,220.67,731.33,220.66Z"/><path class="cls-1" d="M491.5,220.66c28.44,0,56.88.46,85.3-.2,13.82-.33,19.23,5.45,19.1,18.73-.49,52-.68,104.07-1.06,156.1-.12,17.19-1.81,19-19.22,19q-82.41.17-164.82,0c-19.91,0-21.8-2-21.83-21.24q-.11-76.63,0-153.26c0-18,1.1-19.07,18.68-19.13C435.6,220.58,463.55,220.66,491.5,220.66Z"/><path class="cls-1" d="M1209.32,443.63c28.88,0,57.76.25,86.63-.11,11.67-.15,16.46,4.59,16.41,16.29q-.39,80.85-.06,161.71c0,10.81-4.41,15.79-15.52,15.76q-87.36-.28-174.71,0c-11.88.05-16.11-5.09-16-16.6q.43-80.85,0-161.71c-.08-12.38,5.44-15.68,16.7-15.51C1151.56,443.91,1180.44,443.62,1209.32,443.63Z"/><path class="cls-1" d="M491.73,637.25c-27.93,0-55.86.11-83.78,0-17-.09-18.93-2-19-19.37-.1-52,.27-104-.23-156-.14-13.95,5.33-18.5,18.84-18.39q84.51.66,169,0c13.89-.12,18.56,5.23,18.44,18.8-.46,52-.08,104-.17,156,0,17-2.07,18.92-19.36,19C547.59,637.32,519.66,637.24,491.73,637.25Z"/><path class="cls-1" d="M970.15.17c28.4,0,56.8-.07,85.2,0,18.1,0,19.2,1,19.23,18.46q.14,76.53,0,153.07c0,16.62-3,19.87-19.12,19.92-57.28.17-114.56-.16-171.84.21-13.26.09-17.65-5.38-17.55-18.19q.63-78.7,0-157.4c-.08-11.66,4-16.45,16-16.23C911.42.53,940.79.18,970.15.17Z"/></g></g></svg>