<svg xmlns="http://www.w3.org/2000/svg" viewBox="0 0 1470.91 1476.72"><defs><style>.cls-1{fill:#86efac;}</style></defs><title>Git</title><g id="Layer_2" data-name="Layer 2"><g id="Layer_1-2" data-name="Layer 1"><path class="cls-1" d="M793.15,563.54c52.85,41.7,90,85.91,131.28,125.68,14.79,14.24,7.93,30.86,7,47-3.11,55.31,26.19,100.83,77.28,120.21,45.3,17.18,101.26.09,130.12-39.75,33.06-45.63,33.17-97.51-.47-142.54-25-33.49-59.53-48.83-100.48-44.21-21.77,2.46-36.08-3.73-50.43-19.05-27.12-29-55.55-56.71-84.11-84.27-29.41-28.39-53.12-54.21-50.64-103.33C855.82,362,796.32,315.69,733,321c-23.63,2-38.54-4.67-53.67-20.34-39.12-40.53-78-81.39-119.16-119.83-19.83-18.53-15.72-29.86,1.42-46,29.8-28.07,57.94-57.9,86.78-87,63.4-64,109.15-63.87,173.5.9q166.59,167.67,333,335.58,136.82,137.65,274,275c55.57,55.84,56.32,103.61,1,159.31q-307.45,309.34-615.58,618c-52.81,52.94-100.37,53.72-153.19.68Q370.94,1146,81.92,853.69c-15.32-15.45-31.27-30.31-46-46.28-47.88-51.8-48.14-94,.93-144,93.27-95,187.37-189.18,281.17-283.65,41.49-41.8,84.22-82.43,124.14-125.67,20-21.67,33-20,52.08.44,37.61,40.21,77,78.76,116.6,117.07,13.35,12.92,17.77,26.32,15,44.45-7.47,48.53,8,88.77,48.41,117.32,13.38,9.43,17.12,20.34,17.07,35.49-.4,117.92-.65,235.84-.07,353.75.09,17.59-7.29,27-20.57,37.46-56.8,44.62-63.5,120.67-16.8,172.83,44.92,50.16,120.42,52.43,168.07,5,48.16-47.9,44.88-127.94-8.4-174.18C802.25,954,793,945.87,793,929.67,793.28,810.76,793.15,691.86,793.15,563.54Z"/></g></g></svg>