<svg xmlns="http://www.w3.org/2000/svg" viewBox="0 0 929.46 1045.75"><defs><style>.cls-1{fill:#86efac;}</style></defs><title>HTML5</title><g id="Layer_2" data-name="Layer 2"><g id="Layer_1-2" data-name="Layer 1"><path class="cls-1" d="M464.71.53C609.14.53,753.56,1,898,.1c26.07-.16,33.73,6.56,30.93,34.1-13.63,134.36-25,269-37,403.48-14,156.7-28.26,313.38-41.77,470.13-2.3,26.72-12.42,40.66-40.68,47.86C704.11,982.5,599.76,1013.12,494.69,1041c-17.13,4.54-37.27,6.83-54,2.41q-167.13-44.22-333-93.07c-12.08-3.58-27-21.62-28.24-34.14C62.24,736,47.27,555.62,31.47,375.32,21.63,263,12.15,150.63.67,38.47-2.33,9.15,4-.37,35.38,0,178.47,1.74,321.6.77,464.71.77ZM746.23,204.47H185.73c-1.18,7.9-3,13-2.54,17.89,8.24,95.37,17,190.69,25,286.07,2.19,25.88,16.65,30.61,39.9,30.37q161.49-1.68,323,0c12.54.15,35.81,11.07,35.72,16.68-.75,44.4,1.83,91.66-13.35,131.71-6.8,18-51.86,21.51-79.65,31.35-7.4,2.61-15.56,7-22.64,5.92-49.58-7.79-101.57-10.4-147-28.89C328,689,328,642.83,320.45,614.8c-.62-2.32-2.55-4.27-5.5-9H218.21c4.65,54.06,8.48,105.9,14.32,157.51.76,6.74,10.82,15.72,18.25,17.9q99.9,29.14,200.53,55.74c8.38,2.23,18.52,1,27.14-1.29,63.29-16.8,126.81-32.95,189.22-52.63,12.61-4,28.37-21.21,29.77-33.77,10.3-92.51,16.64-185.47,25.77-278.13,2.95-29.89-7.51-39-37-38.59-102.39,1.34-204.81.42-307.22.39-72.1,0-72.1,0-79.47-72-5.58-54.48-3.42-56.86,53.28-57,116.86-.33,233.72,0,350.54-1.75,12.09-.18,31.69-10.36,34.46-19.8C744.64,259.12,743.67,233.6,746.23,204.47Z"/></g></g></svg>