<svg xmlns="http://www.w3.org/2000/svg" viewBox="0 0 1381.92 1381.92"><defs><style>.cls-1{fill:#000000;}</style></defs><title>Javascript</title><g id="Layer_2" data-name="Layer 2"><g id="Layer_1-2" data-name="Layer 1"><path class="cls-1" d="M.09,1238.24Q.09,694.15,0,150.06A150,150,0,0,1,150.06,0q544.1.14,1088.18.09a143.69,143.69,0,0,1,143.68,143.69V1228.41a153.5,153.5,0,0,1-153.51,153.51H143.78A143.69,143.69,0,0,1,.09,1238.24Zm1056.57,35c36.4.18,69.7-3.72,101.78-15.62,42.46-15.75,76.87-41.15,98.27-82,16.88-32.25,20.78-66.92,18.28-102.63-2.36-33.79-12.24-65-32.92-92.26-19.57-25.85-45.2-44.34-72.92-60.28-32.38-18.61-67-32.34-101.19-47.19-20.24-8.8-40.63-17.49-57.59-32.2-29-25.16-25.85-71.85,6.78-92.1,24.17-15,49.64-10.11,73.94-.52,19.64,7.75,31.74,24.62,41.93,42.44,2.68,4.69,4.51,4.64,8.67,1.94q45.7-29.73,91.76-58.94c4.15-2.63,4.33-4.42,2-8.43-34-58.46-84.28-91.6-151.84-97.76-32.79-3-65.42-2-97.09,8-68.3,21.51-110.87,66.1-122,138.15a192.69,192.69,0,0,0,4.27,78.13c11.74,45.16,39.89,78.94,78.55,104.5,29.54,19.54,61.89,33.28,94.22,47.19,25.12,10.81,50.62,20.93,73.6,36.12,21.71,14.36,33.53,34,30.38,60.64-2.92,24.59-18.66,40-40.4,48.27-40.52,15.48-80.45,12.23-118.37-8.94C963,1126.46,946.3,1105.9,932,1083.35c-2.13-3.35-3.58-4.39-7.42-2.12q-48.4,28.63-97.08,56.82c-3.5,2-3.78,3.62-1.91,6.9a296.6,296.6,0,0,0,19.24,30.25c41.32,55.82,98.94,83.89,165.46,95.5A203.33,203.33,0,0,0,1056.66,1273.25ZM753.64,870q0-113.29,0-226.59c0-9,0-9-8.74-9q-55.95,0-111.91,0c-10.65,0-9.65-1.72-9.65,9.43q0,213.82,0,427.64c0,14.28-.55,28.55-4.28,42.46-4.51,16.78-13.14,30.22-29.92,37.29-4.42,1.86-9.27,2.62-13.63,3.44-26.93,5-52.34,2.2-73-18.4-11.71-11.66-20.37-25.53-28.24-39.86-2.77-5.06-4.49-6.42-10.07-3q-46.87,29.13-94.36,57.31c-5.09,3-5.19,5.31-2.68,10.13,31.19,60,79.38,97.28,146.43,108.3,45.93,7.56,91.52,5.76,135.44-11.61,37.72-14.92,65.89-40.43,83.73-77.13,16.07-33.07,20.83-68.4,20.92-104.59C753.77,1007.24,753.64,938.62,753.64,870Z"/></g></g></svg>