<svg xmlns="http://www.w3.org/2000/svg" viewBox="0 0 1281.1 1275.93"><defs><style>.cls-1{fill:#000000;}</style></defs><title>MongoDB</title><g id="Layer_2" data-name="Layer 2"><g id="Layer_1-2" data-name="Layer 1"><path class="cls-1" d="M0,714.8v-153c2.73-13.15,5.75-26.25,8.15-39.46,17.28-95,53.21-182.58,111.27-259.39C253.1,86.06,431.08-6.44,653.87.35c250.19,7.63,440.45,125,551.61,347.17,126.23,252.25,92.75,494.69-87.92,713.17-61.84,74.78-140.43,128.52-229.83,167.1-55.88,24.12-114.76,35.54-173.56,48.14h-153c-11-2.42-22-5.07-33.14-7.23Q193.43,1203.48,50.52,894.06C24.09,837,12.34,775.82,0,714.8Zm811.78-81.28C813,559.76,789.06,493.21,757,428.24c-27.45-55.62-78.27-93-109.11-145.73-4.14-7.08-8.61-4.74-13.48.23C599.25,318.55,562.27,352.58,537,397c-55.64,97.88-78.27,201.89-53.79,312.67,18.54,83.87,68.25,150,132,205.71,12.3,10.75,18.54,22.25,19.74,37.93,1.29,16.93,3.32,33.81,5.53,50.64.59,4.51,1,11.11,8,10.25,5.1-.63,5-6.23,5.66-10.3,3.26-19.55,6.57-39.1,9.49-58.7,2.06-13.85,7.72-24.78,18.79-34.28C767.4,838.08,809.93,745.19,811.78,633.52Z"/><path class="cls-1" d="M647.2,562.47c6.46,13.17,6.22,25.42,6.59,36.93,3,91.27,10.48,182.38,9.88,273.77,0,6.63,3,17-5.12,18.52-9.85,1.81-10.39-9.57-12.69-16.44-4.72-14.12-8.71-28.64-8.75-43.6-.22-82.12-2.5-164.28,3.2-246.32C640.79,578.51,639.46,571,647.2,562.47Z"/></g></g></svg>