<svg xmlns="http://www.w3.org/2000/svg" viewBox="0 0 1158.66 1156.16"><defs><style>.cls-1{fill:#000000;}</style></defs><title>NEXTjs</title><g id="Layer_2" data-name="Layer 2"><g id="Layer_1-2" data-name="Layer 1"><path class="cls-1" d="M1158.66,520.65v119.4c-1.07,5.65-2.35,11.27-3.2,17-24.56,165.27-104.85,296.87-239.31,395.57-23.52,17.27-24.07,16.86-40.5-8Q703.3,783.51,531,522.4q-46.15-69.87-93-139.27c-10.05-14.87-35.38-20.6-55.67-13.88-18,6-15.8,21.11-15.82,35.17q-.12,124.17-.17,248.36,0,81.83,0,163.66c0,10.5,0,20.93,12,25.84,30.42,12.43,51.34-1.41,51.92-34,1.7-94.31-1.65-188.68,2.75-283,.43-9.09-5.08-23.27,4.29-26.08,9.19-2.76,13.14,11.76,18.28,19.34,125.26,184.85,249,370.73,385.76,547.5,17.81,23,17.3,23.36-9.22,36.48-56.34,27.86-116.43,43.22-178,53.63H503.9c-9.39-2-18.72-4.35-28.17-6C193.54,1101-46.72,830.84,7.77,483.94,52.8,197.19,309.89-8.38,586.12.26c243.64,7.63,417.17,125.13,523.74,343C1137.19,399.14,1149.68,459.51,1158.66,520.65ZM783.81,760.12c5.3-5.38,3.8-10.1,3.8-14.31q.15-181.72.1-363.44c0-10.5-.21-20.62-11-26.72-25.75-14.51-52.73-.56-54.93,28.55-.29,3.84-.41,7.69-.42,11.53q-.2,126-.24,251.9c0,6.29-.18,13.71,2.88,18.66C743.31,697.7,763.55,728.57,783.81,760.12Z"/></g></g></svg>