<svg xmlns="http://www.w3.org/2000/svg" viewBox="0 0 1228.89 1351.99"><defs><style>.cls-1{fill:#000000;}</style></defs><title>Nodejs</title><g id="Layer_2" data-name="Layer 2"><g id="Layer_1-2" data-name="Layer 1"><path class="cls-1" d="M424.21,1110.44C350,1175,270.27,1168.6,189.18,1127c-45.19-23.19-88.61-49.81-132.84-74.88C19.67,1031.31.62,999.06.47,957.69Q-.52,675.32.3,392.93c.09-47.34,24.75-79.83,65.13-102.64Q250.64,185.65,435.35,80.13c35.61-17.56,70.87-35.73,103-59.39C600.85-16.63,656.06,1.42,714.63,36.07,861.57,123,1010.72,206.22,1159.88,289.32c47.2,26.3,69.13,63.75,69,116.83q-.65,269.46-.13,538.92c.13,52.19-21.68,88.86-67.46,114.47q-242.88,135.92-484.58,274c-40.62,23.1-80.5,25.54-121.45,1.64-52.47-30.64-105.22-60.82-157.68-91.48-7-4.11-17.81-7.08-16.57-17.35s13.35-8.53,19.83-13.11c51.65-36.53,95.76-20.78,144.48,11.33,68.13,44.89,69.68,40.6,141.32-.43q211.13-120.91,423.66-239.35c18.5-10.32,26.21-22.41,26.16-42.87q-.62-266.25-.1-532.5c.07-22.05-7.51-36.37-27.44-45.69-19.25-9-37.72-19.71-56.53-29.67-24.43-17.85-49.76-34.07-78.89-43.38-101.42-64.82-209.71-117.81-312-181-33-20.35-57.62-21.44-92.55-.92C425.44,193.05,279.94,274,134.17,354.37c-30.84,17-43.48,36.4-43,72.67,2.11,169,1.57,338,.76,507-.13,25.65,7.43,41.27,31,53.16,37.12,18.75,72.21,41.49,108.51,61.95,19.83,11.17,41.36,17.92,64.39,16.64,37.91-2.1,62.33-25.46,62.4-63.23.29-169-.46-337.95-.83-506.92,7.35-70.09,7.36-70.08,81.39-72.43,2.06-.07,4.09-.91,6.13-1.4,0,0-.58-.61-.57-.61,11,13.71,9.19,30,9.17,45.87-.18,170.61-1.43,341.24.19,511.84C454.08,1026,440.27,1068,424.21,1110.44Z"/><path class="cls-1" d="M535.27,496.94c31-46,75.25-71.24,129-80.84,77.92-13.93,155.12-13.82,230.58,13.85,61,22.36,103.8,79.4,106.56,139.4,1,20.7-5.91,29.94-27,28.6a306.39,306.39,0,0,0-38.45,0c-16.28,1-26-4.91-30.13-21.45-12.2-49.25-47.53-71.79-94.86-77.43-51-6.07-102.31-9.64-151.64,10.49-25.18,10.28-39.84,28.42-38.25,56.69,1.2,21.24,11.26,33.35,33.46,39.83,78.2,22.81,160.44,22.08,238.79,43.11,19.48,5.24,38.62,11.18,57.45,19,90,37.13,96.17,167.47,22.09,230.16-47.53,40.22-103,53.94-162,58.34-72,5.37-142.78-2.66-211.25-26.9q-18.51-11.25-37-22.52a3.71,3.71,0,0,0-3.72-2.09C532.83,877.75,511,847.75,506.5,809c-2-17.31-14-39.88,14.2-48.07,39.67-11.53,71.85-.38,79.56,27.14,6.48,23.11,14.19,44.68,38.76,54.66v-.08c3.83,3.43,7.1,8.6,11.58,10.05,73.6,23.85,148.23,24.4,222,3.47,37.39-10.6,55.26-39.2,49.47-71.43-6.23-34.7-34.39-42-64.08-45.63l.07,0c-10.83-7.84-23.72-9.17-36.28-10.5-65.32-6.92-130.49-14.78-195-27.51L624.71,700l-2.41.16c-11.69-7.85-24.6-12.74-38.26-15.84l.64.26c-42.29-28.73-66.55-66.82-64.81-119.79C520.66,540.91,529,519.28,535.27,496.94Z"/></g></g></svg>