<svg xmlns="http://www.w3.org/2000/svg" viewBox="0 0 1408.27 1406.05"><defs><style>.cls-1{fill:#86efac;}</style></defs><title>Python</title><g id="Layer_2" data-name="Layer 2"><g id="Layer_1-2" data-name="Layer 1"><path class="cls-1" d="M653.54,0H747.4a57.08,57.08,0,0,0,5.78.84c44.25,2,88,7.49,130.91,18.83,38.71,10.22,75.32,25.07,107.06,50.15,24.35,19.26,42.38,43.11,51.83,73,5.2,16.45,5.35,33.28,5.28,50.4-.39,100.11-.23,200.23-.15,300.34a261.52,261.52,0,0,1-2.48,39.17c-9.07,60.57-40.85,104.2-97,129.5-31.14,14-64,20.48-98,20.52q-165.42.19-330.85,0c-16.85,0-33.6.81-50.19,3.93-54.8,10.3-96.73,38.66-123.1,88.38-17.07,32.19-25.41,66.88-25.78,103.17-.56,54.55-.15,109.11-.16,163.67,0,9-.23,9.24-9.15,9.24-35.59,0-71.18-.1-106.77.07-28.08.13-54.17-7.09-78.4-20.93C88,1008.45,62,975.54,42.93,936.63,19.21,888.16,8.85,836.16,3.31,783,2,770,1.09,756.92,0,743.88V661.75c.29-2.12.74-4.23.85-6.36C2.6,621.53,7.1,588.05,15.4,555.15c12.12-48,30.88-92.75,65.59-129.29,37.83-39.83,84.09-61.1,139.25-61.26,89.36-.26,178.73,0,268.09,0q105.32,0,210.61,0c8,0,8.37-.38,8.4-8.2,0-10,0-19.95,0-29.92,0-9.38,0-9.4-9.5-9.4l-322.66,0c-10.34,0-10.35,0-10.37-10.41-.05-49.87.45-99.74-.36-149.6-.49-30.56,11-55.52,31.46-77,19.22-20.21,42.89-33.79,68.39-44.38C511.24,16.21,560.71,8,610.91,3.31,625.1,2,639.33,1.09,653.54,0ZM512.61,109.18c-34.24.15-60.83,27-60.69,61.28.13,34,27.25,60.6,61.63,60.47,33.45-.12,60.19-27.45,60.1-61.41S546.57,109,512.61,109.18Z"/><path class="cls-1" d="M958.51,1041.79H720.92c-2.73,0-5.47.11-8.21,0-4.36-.1-6.48,1.82-6.45,6.31.09,11.54.07,23.08,0,34.61,0,4.2,1.93,6.1,6.08,6,2.54-.07,5.09,0,7.63,0l317.37,0c11.5,0,11.47,0,11.48,11.2,0,50.65,0,101.3.16,151.94.11,26.78-10.1,49.34-27.08,69.34-20.17,23.77-46.69,38.14-74.79,50-33.92,14.24-69.64,21.84-105.83,27.22-54.51,8.09-109.42,8.12-164.35,7.33-27.56-.4-54.93-3-82.25-6.62-34.77-4.59-68.93-11.85-101.74-24.18-32.58-12.25-63.11-28.4-87.62-54-19.66-20.5-33.29-44.35-38.48-72.49-1.74-9.38-2.74-19-1.43-28.59a84.22,84.22,0,0,0,.42-11.13q.06-152.22,0-304.46c0-31.63,5.88-61.76,20.76-89.8A151.39,151.39,0,0,1,436,759.86c25.84-17.61,54.64-27.3,85.18-32.76,14.32-2.56,28.67-3.26,43.13-3.27q161.61,0,323.23-.1c28,0,55.87-1.89,82.68-10.88,28.1-9.43,52.66-24.39,72.43-46.93,24.13-27.5,38-59.83,45.47-95.14a227.87,227.87,0,0,0,5.17-46.53c.12-53,0-106,0-159,0-9.54.34-9.89,9.9-9.89,35.78,0,71.57.21,107.35-.07,33.48-.27,63.31,10.28,90.44,29.3,35.91,25.17,59.27,59.93,76.14,99.71,12.5,29.48,20.36,60.22,26.32,91.59a293.28,293.28,0,0,1,4.7,56.49c-.25,50.84-.32,101.68.06,152.52.14,19.19-3.89,37.67-8,56.09-6.5,29.43-15.83,58-29.7,85-16.93,32.86-39.69,60.78-70.11,82.07-24.94,17.46-52.71,27.57-82.82,32-13.08,1.92-26.1,1.8-39.18,1.8q-110,0-220,0Zm-57.89,133.76c-31.88-2.38-62,28.35-60.91,62,1,32.12,27.17,59.92,60.87,59.61,34.63-.33,60.68-26.56,61.13-60.72C962.16,1202,932.73,1174,900.62,1175.55Z"/></g></g></svg>