<svg xmlns="http://www.w3.org/2000/svg" viewBox="0 0 1414.2 1262.98"><defs><style>.cls-1{fill:#000000;}</style></defs><title>React</title><g id="Layer_2" data-name="Layer 2"><g id="Layer_1-2" data-name="Layer 1"><path class="cls-1" d="M289,394.64c-6.32-65.55-15.3-127-17-188.69-.94-34.48,5.65-70.84,16.81-103.64,27.39-80.47,93-115.1,176-96.47,79.8,17.89,143.2,65.24,203.8,117,12,10.23,23.74,20.71,36.73,32.07,29.75-24.47,56.41-52,88.12-71.17C841,55.05,889.88,25.53,942.14,8.42c82.81-27.12,153.29,13,182.1,95.35,28.89,82.58,19.19,166.36.33,248.81-7.73,33.74,1.1,42.77,32.49,55.85,64.57,26.9,131,55.81,186,97.83,95.57,73,94.86,180.9-1.92,252.21C1283.46,801,1213.9,828.05,1147.86,858c-23.59,10.7-30.82,18.5-24.56,44.71,17.35,72.66,25.58,146.5,11,221-22.73,116.54-109.46,168.08-219.4,123.21-53.22-21.72-100.94-57.54-149.8-89.07-21.18-13.66-38.95-32.61-57.51-48.51-39.95,31-76.44,63.82-117.28,89.77-35.55,22.59-74.46,42.56-114.61,54.71-93.8,28.4-167-15-193.09-109.41-22.14-80-13.11-159.91,5.3-238.64,7-30-1.26-39.91-28.55-48.61-74.6-23.78-146.52-53.95-203.87-110.07-74-72.47-74-158.48-.19-230.62,55.53-54.3,125-83.46,196.63-108.62C265.5,403.09,279,398.21,289,394.64ZM683.8,862.79c183.82-9.22,137.49,26,218.23-114,83.11-144.09,80.46-88.41,1.93-232.67-62.88-115.51-65.35-114.17-196-114.22-135.07-.06-135.07-.06-202.14,116.6-65.31,113.61-61.56,111.66-1.16,227.94C548.79,831.33,600.22,889.76,683.8,862.79ZM662,1065.58c-38.59-49.16-74.18-95.22-110.87-140.4-5.46-6.73-15.68-11.81-24.44-13.31C476.33,903.23,425.84,895,375.12,889c-8.36-1-24.61,7.9-26.15,14.72-17.2,76.25-31.67,153.21-7.78,230.76,17.24,56,55.52,79.09,112.22,65.19C538,1178.94,600.63,1123.64,662,1065.58Zm442-254.36c77.38-24.53,153.07-50,212.54-107.34,49.61-47.8,49-97.3-1.13-145.28-55-52.73-124.09-79.67-195.69-100.25-6.79-2-22.23,7.32-25.42,14.86-20.35,48-38.57,97-57,145.82-2.39,6.36-4.42,14.88-2.17,20.66C1057.16,696,1080.07,751.91,1104,811.22ZM662.57,197.08c-61.34-55.47-120.05-108.67-199-130.55C394.89,47.48,353.68,73.25,337,143.05c-17.21,72.06-4.68,142.89,11.11,213.1,1.79,7.92,18.46,18.81,27,17.84,49.52-5.63,98.76-13.92,147.88-22.52,10-1.75,22.17-6.2,28.24-13.59C588.16,292.93,623.58,246.77,662.57,197.08Zm-354,255.15C225.62,477.85,146.38,504.75,86.88,569c-37.9,40.9-37.78,87.15.94,127.31,60.44,62.69,139.33,90.3,220.69,114.21,22.84-57.07,44.88-111,65.66-165.33,3.07-8,2.71-19.34-.38-27.49C353.5,564.27,332,511.34,308.54,452.23Zm441.56,613c58.32,56.82,118.58,107.67,196.45,131.41,66.3,20.21,110.22-4.91,126.92-71.47,20.17-80.46,4.35-158.77-13.75-238.38-62.39,9-121.28,17-179.91,26.54-8.3,1.36-16.91,9.32-22.65,16.42C822.06,973.23,787.75,1017.36,750.1,1065.2Zm310.22-688.57c17.49-80.75,32.3-157.22,14.31-235.53-13.41-58.37-48.3-87.64-99.59-79.94-94.21,14.16-159.23,76.2-225.2,136.43,38.89,49.5,74,94.54,109.69,139.21,4.3,5.39,10.7,11.59,16.9,12.57C936.23,358.85,996.2,367.28,1060.32,376.63ZM706.17,241.07l-82.71,99.38H789Zm338.16,586.08c-15.62-42.45-29.42-79.92-45.92-124.74L913.18,850.25ZM367.24,436.06c16,43,29.78,80.13,46.37,124.76l84.57-147.56ZM498.6,849.93,413.15,702c-16.38,45.4-30,83.09-45.22,125.28ZM998.82,561.28c16.37-45.54,29.95-83.33,45.11-125.47l-130.45-22ZM706.37,1022c28.14-34.11,53.1-64.38,81.92-99.33H623Z"/><path class="cls-1" d="M707.7,757.15c-69.38.86-127.11-54.52-128.05-122.83C578.7,565,633.82,507.51,702.42,506.2,774,504.84,831.1,559.91,831.8,630.9,832.48,700,777.16,756.3,707.7,757.15Z"/></g></g></svg>