<svg xmlns="http://www.w3.org/2000/svg" viewBox="0 0 1604.18 972.19"><defs><style>.cls-1{fill:#000000;}</style></defs><title>Tailwind</title><g id="Layer_2" data-name="Layer 2"><g id="Layer_1-2" data-name="Layer 1"><path class="cls-1" d="M1202.46,657.13a274.08,274.08,0,0,1-15.37,56.63c-16,40.74-35,80.16-62,115-49.76,64.35-114.4,105.77-193.23,126.1C823,983,716.32,977.51,612.67,933.77c-53.11-22.41-99.76-55.11-139.78-97.26-36.8-38.76-73.11-78.21-116.43-110.11-36.92-27.19-77.51-45.74-123.95-47.58-40.67-1.61-79.31,8-116.23,25.07-44.42,20.59-80.06,51.56-109,90.65C5.86,796.41,5,799,1.93,799.2c-3.13-2.14-1.66-5.1-1-7.63,22.82-89.8,64.5-168.21,138-227.17,36.63-29.4,78.95-47.36,123.74-60,104.72-29.53,208.16-26.17,310.21,12.37,64.74,24.45,119.2,63.91,166.31,113.92C773.89,667.58,808.74,704.2,850.1,734c71.51,51.5,147.47,56.32,227.4,22.65,46-19.38,82.45-50.63,112.62-89.82C1192.78,663.35,1195,659.26,1202.46,657.13Z"/><path class="cls-1" d="M402.34,315c2-20.11,7.82-38.09,14.4-55.27,16.26-42.42,36.49-83,64.68-119.09C534.47,72.64,604.25,32,687.78,13.44c123-27.34,240.27-13.87,350.59,48.78,40.06,22.75,74.28,52.73,105.76,86.41,32,34.27,64.46,68.36,102.54,96.3,37.3,27.36,78.06,46.47,125,48.33,40.67,1.63,79.32-7.92,116.26-25,44.45-20.56,80-51.58,109.09-90.61,1.4-1.88,2.23-4.49,5.2-4.73,2.49,1.07,2.12,3.3,1.7,5.15-13.76,61.06-39.18,117.16-76.67,167-47.34,62.84-110.68,102.59-186.68,123.2-104.57,28.37-207.59,25.82-309.08-13A419.16,419.16,0,0,1,896.78,372c-25.07-23-47.23-48.57-71.44-72.24-33.89-33.13-68.58-65.3-112.24-85.67-63.19-29.48-126-24.83-188.56,2.12-45,19.39-80.61,50.51-110.29,89C411.57,308.63,409.3,312.68,402.34,315Z"/></g></g></svg>