<svg xmlns="http://www.w3.org/2000/svg" viewBox="0 0 1381.92 1381.93"><defs><style>.cls-1{fill:#86efac;}</style></defs><title>Typescript</title><g id="Layer_2" data-name="Layer 2"><g id="Layer_1-2" data-name="Layer 1"><path class="cls-1" d="M1327.26,31a143.13,143.13,0,0,0-89-30.89Q694.15.09,150.06,0A150,150,0,0,0,0,150.06q.12,544.1.09,1088.18a143.55,143.55,0,0,0,143.68,143.69H1228.41a153.34,153.34,0,0,0,153.51-153.51V143.78A143.46,143.46,0,0,0,1327.26,31ZM651.43,1248.1c0,11.61,0,11.61-11.37,11.61H539.65c-10.7,0-10.71,0-10.71-10.48v-238.8q0-119.11,0-238.24c0-10.48,0-10.46-10.23-10.45h-156c-9.45,0-9.45,0-9.47-9.43-.09-30.25-.15-60.49,1.05-90.73.32-8.06.63-8.49,8.94-8.6,126.67-1.76,253.35-.65,380-.54q37.13,0,74.29.51c7.72.11,8.2.52,8.29,7.89q.57,45.07,1.09,90.16c.12,10.71,0,10.74-10.44,10.74H661.08c-9.6,0-9.66,0-9.66,9.89Q651.42,1009.86,651.43,1248.1ZM1286.94,1155c-14,38.52-40.34,66.13-76.09,85a226.78,226.78,0,0,1-111.3,26.67c-2.84,0-5.67,0-8.51,0-35.15,1.07-69.37-3.6-102.39-16.16-33.84-12.87-64.55-30.6-89.24-57.55-12.94-14.12-23.65-29.94-33.49-46.35-2.39-4-2.06-6.8,2.25-9.29q45.93-26.51,91.71-53.26c4.3-2.52,5.81.48,7.53,3.14,9.18,14.22,20.44,26.53,32.67,38.25,19.77,19,43.58,28.09,70.14,31.29,26,3.14,51-.19,74-13.41a57,57,0,0,0,19.39-80.32c-8.48-13.34-21.39-21.15-34.72-28.37-25.12-13.62-51.54-24.51-77.62-36.11-29.41-13.08-58.32-27.1-83.89-47-28.53-22.22-48.65-50.41-60-84.84-3.88-11.82-4.65-24.07-5.73-36.3-4.12-46.54,5.21-89.27,36.37-125.47,22.64-26.29,51.62-42.57,84.7-52.25,28-8.18,56.47-7.08,85-5.78,19.72.9,39,4.2,57.59,11.38,29.9,11.55,54.14,30.55,73.91,55.51,5.75,7.26,11.28,14.68,16.42,22.4,3,4.54,2.87,7.22-1.82,10.61-21.77,15.74-44.33,30.29-66.84,44.91-5.55,3.6-11.28,6.94-16.72,10.69-3.73,2.57-6.47,2-9.23-1.36-6.09-7.47-11.29-15.6-17.65-22.9-23.8-27.32-66.57-29.33-90.94-18.29-29.43,13.32-33.37,47-26.29,67.54,4.72,13.67,13.74,23.74,25.67,31.45,21.73,14,45.74,23.37,69.2,33.86,34.7,15.54,69.23,31.41,100.68,53.09,23.55,16.24,43.24,36.08,56.36,61.79,10.72,21,16.36,43.58,18.18,66.91C1298.4,1101.86,1296.42,1128.94,1286.94,1155Z"/></g></g></svg>