<svg xmlns="http://www.w3.org/2000/svg" viewBox="0 0 1403.66 1440.34"><defs><style>.cls-1{fill:#86efac;}</style></defs><title>VSCode</title><g id="Layer_2" data-name="Layer 2"><g id="Layer_1-2" data-name="Layer 1"><path class="cls-1" d="M0,1084.63C44.08,1090,88.21,1095,132.22,1100.9c56.09,7.53,110.57,25.64,167.83,25.53a6.41,6.41,0,0,1,2.93.29c49.42,26.3,105,10.75,157.12,23.5s107.71,10.83,160.35,22c112.24,23.89,226.67,32.21,339.37,52.26,20.29,3.61,40.95,5.14,61.4,7.93,16.75,2.28,17.2-9.08,17.21-20.39,0-26.62-.51-53.23-.51-79.84q-.12-547.2-.14-1094.39c0-2,0-3.95,0-5.92.41-37.36,1.45-37.4,35.39-23C1173.93,51.56,1274.68,94.4,1376.31,135c21.91,8.75,27.16,20.52,27,41.67-.64,73.94.31,147.88.33,221.82q.12,409.67,0,819.32c0,76.6-.49,75.4-71.25,104-89.69,36.22-178.59,74.4-267.57,112.34-13.44,5.73-26.93,8.42-40.11,4-118.74-40-237.2-80.73-355.89-120.83q-149-50.34-298.31-99.76c-97.54-32.47-196-62.47-292.16-98.55C52.3,1109.22,22.85,1108.81,0,1084.63Z"/><path class="cls-1" d="M860.66,616.55c0,97.55-.26,195.1.25,292.65.09,17.57-3.55,27.93-22.44,35.3-52.07,20.32-102.84,44-154.12,66.33-14.68,6.39-28.45,7.14-40.64-5.57-55.66-58-117.3-110-173.46-167.34q-58.5-59.76-117.4-119.17c-19-19.07-33.28-21.11-56-.2-33,30.4-72.28,54-108.75,80.72-15.67,11.47-31.91,22.38-46.26,35.35-14.13,12.77-30.06,12.3-42.95,3.92C88.65,831.89,79,827.18,67.42,824.59c-7.33-1.64-16.18-3.65-17.75-13.14-1.53-9.15,5.59-13.06,11.76-18.29,60.09-50.91,112.09-110.21,169.38-164,14.42-13.54,11.4-21.55-1.17-33-48.35-44-88.8-96.42-143.92-133.49-13.07-8.79-21.33-24.68-31.94-37.2-10-11.85.38-14.54,8.09-18.59,52.11-27.34,81.69-20.76,136.06,32,35.14,34.08,81.52,52.89,116.39,87.33,9.21,9.09,17.21,1.93,25.07-5.45q107.16-100.62,209-206.6c31.56-32.73,65.76-63.12,96.37-97.08,7.76-8.61,19.58-7.9,30.36-3.29,56.71,24.29,113.31,48.84,170.21,72.69,16.8,7,15.53,20.61,15.53,34.48q-.06,147.81,0,295.61Zm-423.93-.41Q539,694,641.36,772.27c4.33,3.32,7.81,6.2,12.6,3.78,6.59-3.33,4.5-10.19,4.52-15.72q.35-146.21.28-292.41c0-5.38,2.15-12.88-4.74-15.47-6.24-2.34-10.56,3.43-15.19,6.91-49.26,37.07-99,73.54-147.62,111.41C473,585,449.78,593.5,436.73,616.14Z"/></g></g></svg>